<svg width="184" height="61" viewBox="0 0 184 61" fill="none" xmlns="http://www.w3.org/2000/svg">
<g clip-path="url(#clip0_1604_4158)">
<path d="M50.3765 0H11.6253C5.20484 0 0 5.12074 0 11.4375V49.5625C0 55.8793 5.20484 61 11.6253 61H50.3765C56.797 61 62.0018 55.8793 62.0018 49.5625V11.4375C62.0018 5.12074 56.797 0 50.3765 0Z" fill="#F9444B"/>
<path d="M34.6919 18.7003C37.7952 18.7003 40.3109 16.2253 40.3109 13.1722C40.3109 10.1191 37.7952 7.64404 34.6919 7.64404C31.5887 7.64404 29.073 10.1191 29.073 13.1722C29.073 16.2253 31.5887 18.7003 34.6919 18.7003Z" fill="white"/>
<path d="M26.7286 46.5983C26.7286 44.9875 26.7286 43.5864 26.7286 42.1853C26.7286 38.0297 26.7286 33.874 26.7964 29.7184C26.8642 22.8559 33.4616 19.1578 39.4971 22.5891L46.4723 26.5922L44.6413 33.855C44.0988 33.4451 43.7306 33.1211 43.3044 32.9018C40.8534 31.434 38.4024 29.9662 35.9223 28.5365C34.6435 27.7931 33.8201 28.2601 33.8007 29.728C33.7555 34.3411 33.7296 38.9542 33.7232 43.5673C33.755 43.7304 33.7518 43.8982 33.7138 44.0599C33.6758 44.2217 33.6039 44.3739 33.5027 44.5067C33.4014 44.6395 33.2731 44.75 33.1259 44.8312C32.9786 44.9123 32.8158 44.9623 32.6478 44.978C30.7587 45.4069 28.8696 45.9883 26.7286 46.5983Z" fill="white"/>
<path d="M33.946 27.145C33.946 28.7749 33.946 30.2045 33.946 31.6342C33.946 35.8661 33.946 40.098 33.946 44.3394C33.8975 51.3258 27.1645 55.1097 21.0322 51.6308C18.6683 50.2964 16.3142 48.943 13.9117 47.58C14.5026 45.1972 15.0839 42.8716 15.7523 40.1647C16.3142 40.5841 16.7211 40.9177 17.1183 41.175C19.6274 42.6619 22.1269 44.1488 24.6554 45.607C25.9632 46.36 26.8061 45.8835 26.8158 44.387C26.8158 39.6786 26.8739 34.9797 26.8158 30.2808C26.784 30.1147 26.7877 29.9439 26.8266 29.7793C26.8655 29.6147 26.9387 29.4598 27.0417 29.3245C27.1446 29.1892 27.275 29.0764 27.4245 28.9932C27.5741 28.9101 27.7396 28.8585 27.9105 28.8416C29.848 28.365 31.7662 27.7646 33.946 27.145Z" fill="white"/>
<path d="M81.4645 40.1647V37.4197C81.1422 37.8325 80.7927 38.2241 80.4183 38.592C80.0307 38.953 79.6053 39.2725 79.1492 39.5451C78.6638 39.837 78.143 40.0675 77.5991 40.2314C76.9697 40.4099 76.3164 40.4934 75.6616 40.4792C74.7454 40.532 73.8286 40.3889 72.974 40.0598C72.1194 39.7308 71.3474 39.2235 70.7111 38.573C69.472 37.1151 68.8448 35.247 68.9576 33.3498V20.9688H74.5572V31.6342C74.4949 32.6603 74.8076 33.6745 75.4387 34.4936C75.7603 34.8238 76.1518 35.0804 76.5854 35.2451C77.019 35.4099 77.4842 35.4787 77.9479 35.4467C78.4185 35.4749 78.8897 35.4045 79.3306 35.2402C79.7715 35.0759 80.1719 34.8214 80.5054 34.4936C81.1875 33.6971 81.5342 32.6741 81.4742 31.6342V20.9688H87.0738V40.1361L81.4645 40.1647Z" fill="white"/>
<path d="M109.133 34.8559C108.676 36.0077 107.998 37.0625 107.137 37.9631C106.339 38.7934 105.367 39.4438 104.289 39.8693C103.211 40.2959 102.06 40.5128 100.898 40.5079C99.6092 40.5616 98.3297 40.2683 97.1975 39.6596C96.2759 39.1349 95.4479 38.4653 94.7465 37.6771V45.874H89.1663V20.9689H94.7659V23.6948C95.4406 22.8044 96.2866 22.0532 97.2556 21.4835C98.3704 20.8639 99.638 20.5603 100.918 20.6067C102.067 20.6078 103.205 20.8279 104.27 21.2548C105.363 21.6833 106.353 22.3327 107.176 23.161C108.043 24.0587 108.724 25.1141 109.181 26.2682C109.708 27.6211 109.965 29.0612 109.937 30.5096V30.5763C109.954 32.0407 109.681 33.4944 109.133 34.8559ZM104.289 30.5477C104.295 29.8032 104.163 29.0637 103.901 28.3651C103.663 27.7413 103.304 27.1685 102.845 26.6781C102.418 26.2192 101.9 25.8497 101.324 25.5915C100.737 25.3426 100.104 25.216 99.4644 25.2198C98.8248 25.214 98.1911 25.3407 97.6044 25.5915C97.0286 25.8451 96.5136 26.2153 96.0931 26.6781C95.6437 27.1719 95.2921 27.7441 95.0565 28.3651C94.7946 29.0637 94.6634 29.8032 94.669 30.5477V30.6145C94.6634 31.3591 94.7946 32.0985 95.0565 32.7971C95.2921 33.4181 95.6437 33.9903 96.0931 34.4842C96.5136 34.9469 97.0286 35.3171 97.6044 35.5707C98.1911 35.8215 98.8248 35.9482 99.4644 35.9424C100.104 35.9462 100.737 35.8197 101.324 35.5707C101.9 35.3126 102.418 34.943 102.845 34.4842C103.302 33.9992 103.66 33.4331 103.901 32.8162C104.167 32.1118 104.298 31.3655 104.289 30.6145V30.5477Z" fill="white"/>
<path d="M131.793 34.8559C131.339 36.0071 130.665 37.0619 129.807 37.9631C129.005 38.7939 128.03 39.4442 126.949 39.8693C125.871 40.2959 124.72 40.5128 123.558 40.5079C122.269 40.5602 120.99 40.267 119.857 39.6596C118.937 39.1324 118.11 38.4631 117.406 37.6771V45.874H111.807V20.9689H117.406V23.6948C118.083 22.8061 118.928 22.0552 119.896 21.4835C121.011 20.8639 122.278 20.5603 123.558 20.6067C124.707 20.6071 125.846 20.8272 126.91 21.2548C128.006 21.6784 128.997 22.3284 129.816 23.161C130.677 24.0725 131.349 25.141 131.793 26.3064C132.319 27.6592 132.576 29.0993 132.548 30.5477V30.6145C132.576 32.0629 132.319 33.503 131.793 34.8559ZM126.949 30.5477C126.959 29.8028 126.828 29.0625 126.561 28.3651C126.322 27.7436 125.967 27.1714 125.515 26.6781C125.082 26.2206 124.562 25.8514 123.984 25.5915C123.397 25.3426 122.764 25.216 122.124 25.2198C121.485 25.214 120.851 25.3407 120.264 25.5915C119.688 25.8451 119.173 26.2153 118.753 26.6781C118.307 27.1725 117.958 27.7447 117.726 28.3651C117.459 29.0625 117.328 29.8028 117.338 30.5477V30.6145C117.328 31.3594 117.459 32.0998 117.726 32.7971C117.958 33.4176 118.307 33.9898 118.753 34.4842C119.173 34.9469 119.688 35.3171 120.264 35.5707C120.851 35.8215 121.485 35.9482 122.124 35.9424C122.764 35.9462 123.397 35.8197 123.984 35.5707C124.562 35.3108 125.082 34.9416 125.515 34.4842C125.965 33.9962 126.32 33.4308 126.561 32.8162C126.831 32.1131 126.963 31.3659 126.949 30.6145V30.5477Z" fill="white"/>
<path d="M154.801 34.4936C154.269 35.6824 153.505 36.7573 152.553 37.658C151.571 38.5772 150.421 39.3049 149.163 39.8025C146.423 40.8444 143.387 40.8444 140.647 39.8025C139.396 39.3262 138.253 38.6102 137.286 37.6961C136.337 36.804 135.58 35.7347 135.057 34.5508C134.513 33.328 134.236 32.0064 134.244 30.6715V30.5953C134.233 29.2602 134.511 27.9381 135.057 26.7161C135.585 25.5272 136.346 24.4521 137.295 23.5517C138.278 22.6324 139.428 21.9047 140.686 21.4072C143.426 20.3653 146.462 20.3653 149.201 21.4072C150.449 21.8907 151.59 22.6058 152.563 23.5136C153.514 24.4094 154.274 25.4817 154.801 26.6684C155.34 27.8926 155.614 29.2137 155.605 30.5476V30.6144C155.614 31.9483 155.34 33.2694 154.801 34.4936ZM150.083 30.6144C150.085 29.9245 149.961 29.2399 149.715 28.5937C149.472 27.9726 149.11 27.4031 148.649 26.9162C148.174 26.4274 147.609 26.0327 146.983 25.7534C146.325 25.4628 145.611 25.3165 144.89 25.3245C144.149 25.3092 143.413 25.4489 142.73 25.7344C142.124 25.9962 141.579 26.3792 141.132 26.859C140.681 27.3416 140.335 27.909 140.114 28.527C139.879 29.1753 139.761 29.8592 139.766 30.5476V30.6144C139.763 31.3042 139.888 31.9888 140.134 32.635C140.374 33.2573 140.736 33.8273 141.199 34.3125C141.666 34.8017 142.226 35.1966 142.846 35.4753C143.51 35.7698 144.231 35.9163 144.958 35.9042C145.7 35.9195 146.436 35.7798 147.119 35.4943C147.727 35.236 148.272 34.8525 148.717 34.3697C149.148 33.885 149.477 33.3214 149.686 32.7112C149.921 32.0628 150.039 31.379 150.035 30.6906L150.083 30.6144Z" fill="white"/>
<path d="M169.061 26.3252C168.252 26.2831 167.443 26.4081 166.685 26.6921C165.928 26.976 165.239 27.4127 164.663 27.9741C163.585 29.067 163.049 30.7699 163.055 33.0829V40.1646H157.455V20.9686H163.055V24.8288C163.558 23.6094 164.356 22.5296 165.38 21.6835C166.523 20.8528 167.938 20.469 169.352 20.6064V26.3252H169.061Z" fill="white"/>
<path d="M181.966 40.1837C181.164 40.3973 180.336 40.4999 179.505 40.4887C178.715 40.4936 177.928 40.404 177.16 40.2218C176.489 40.056 175.87 39.7285 175.358 39.2687C174.825 38.7798 174.42 38.1716 174.177 37.4958C173.871 36.6063 173.73 35.6702 173.76 34.7318V25.6485H171.396V20.9687H173.76V16.0696H179.36V20.9687H184V25.6199H179.36V33.8073C179.36 35.0781 179.96 35.6976 181.161 35.6659C182.125 35.6688 183.073 35.4362 183.922 34.9891V39.3449C183.31 39.7066 182.652 39.9886 181.966 40.1837Z" fill="white"/>
</g>
<defs>
<clipPath id="clip0_1604_4158">
<rect width="184" height="61" fill="white"/>
</clipPath>
</defs>
</svg>
