<svg width="120" height="41" viewBox="0 0 120 41" fill="none" xmlns="http://www.w3.org/2000/svg">
<g id="Layer_1" clip-path="url(#clip0_1552_2091)">
<path id="Vector" d="M32.8542 0H7.58174C3.39446 0 0 3.43976 0 7.68293V33.2927C0 37.5358 3.39446 40.9756 7.58174 40.9756H32.8542C37.0415 40.9756 40.436 37.5358 40.436 33.2927V7.68293C40.436 3.43976 37.0415 0 32.8542 0Z" fill="#F9444B"/>
<path id="Vector_2" d="M22.6252 12.5616C24.649 12.5616 26.2897 10.899 26.2897 8.84818C26.2897 6.79732 24.649 5.13477 22.6252 5.13477C20.6013 5.13477 18.9607 6.79732 18.9607 8.84818C18.9607 10.899 20.6013 12.5616 22.6252 12.5616Z" fill="white"/>
<path id="Vector_3" d="M17.4317 31.3015C17.4317 30.2195 17.4317 29.2783 17.4317 28.3372C17.4317 25.5457 17.4317 22.7542 17.4759 19.9628C17.5201 15.353 21.8228 12.8689 25.759 15.1738L30.308 17.8628L29.1139 22.7414C28.7601 22.4661 28.52 22.2484 28.242 22.1012C26.6435 21.1152 25.045 20.1292 23.4276 19.1689C22.5936 18.6695 22.0566 18.9832 22.0439 19.9692C22.0144 23.068 21.9976 26.1667 21.9934 29.2655C22.0141 29.375 22.012 29.4878 21.9873 29.5964C21.9625 29.7051 21.9156 29.8073 21.8496 29.8965C21.7835 29.9857 21.6998 30.06 21.6038 30.1145C21.5078 30.169 21.4016 30.2026 21.2921 30.2131C20.06 30.5012 18.828 30.8918 17.4317 31.3015Z" fill="white"/>
<path id="Vector_4" d="M22.1387 18.2342C22.1387 19.329 22.1387 20.2893 22.1387 21.2497C22.1387 24.0924 22.1387 26.9351 22.1387 29.7841C22.1071 34.4771 17.716 37.0189 13.7166 34.682C12.175 33.7857 10.6397 32.8765 9.07281 31.961C9.45822 30.3604 9.8373 28.7982 10.2733 26.9799C10.6397 27.2616 10.9051 27.4857 11.1641 27.6586C12.8005 28.6573 14.4306 29.6561 16.0796 30.6357C16.9326 31.1415 17.4822 30.8214 17.4885 29.8162C17.4885 26.6534 17.5265 23.497 17.4885 20.3405C17.4679 20.229 17.4703 20.1143 17.4956 20.0037C17.521 19.8931 17.5687 19.7891 17.6359 19.6982C17.703 19.6073 17.788 19.5315 17.8856 19.4757C17.9831 19.4198 18.091 19.3851 18.2025 19.3738C19.4661 19.0537 20.7171 18.6503 22.1387 18.2342Z" fill="white"/>
<path id="Vector_5" d="M53.1291 26.9799V25.136C52.9188 25.4133 52.6909 25.6763 52.4467 25.9235C52.194 26.166 51.9165 26.3806 51.619 26.5637C51.3025 26.7597 50.9628 26.9146 50.6081 27.0247C50.1976 27.1446 49.7716 27.2007 49.3445 27.1912C48.747 27.2266 48.1491 27.1305 47.5917 26.9094C47.0344 26.6884 46.5309 26.3477 46.1159 25.9107C45.3078 24.9314 44.8988 23.6765 44.9724 22.4021V14.0854H48.6242V21.2497C48.5836 21.9389 48.7875 22.6202 49.1992 23.1704C49.4089 23.3923 49.6642 23.5646 49.947 23.6753C50.2298 23.7859 50.5332 23.8321 50.8356 23.8107C51.1425 23.8296 51.4498 23.7823 51.7374 23.6719C52.0249 23.5616 52.286 23.3906 52.5036 23.1704C52.9484 22.6354 53.1744 21.9482 53.1354 21.2497V14.0854H56.7872V26.9607L53.1291 26.9799Z" fill="#04385F"/>
<path id="Vector_6" d="M71.1736 23.4137C70.8755 24.1874 70.4337 24.896 69.872 25.5009C69.3514 26.0587 68.7177 26.4956 68.0145 26.7814C67.3117 27.068 66.5607 27.2137 65.8032 27.2104C64.9625 27.2465 64.128 27.0494 63.3897 26.6406C62.7886 26.2881 62.2486 25.8383 61.7912 25.3089V30.815H58.1519V14.0854H61.8038V15.9165C62.2439 15.3184 62.7956 14.8138 63.4276 14.4311C64.1546 14.0149 64.9813 13.811 65.8158 13.8421C66.5654 13.8429 67.3078 13.9907 68.0019 14.2774C68.7151 14.5653 69.3608 15.0015 69.8973 15.5579C70.463 16.1609 70.9072 16.8699 71.2052 17.6451C71.5487 18.5539 71.716 19.5213 71.698 20.4942V20.539C71.7092 21.5227 71.5311 22.4992 71.1736 23.4137ZM68.0145 20.5198C68.0182 20.0197 67.9326 19.523 67.7618 19.0537C67.6061 18.6347 67.3723 18.2499 67.0731 17.9204C66.7941 17.6122 66.4568 17.364 66.0812 17.1906C65.6982 17.0234 65.2851 16.9383 64.8681 16.9409C64.4509 16.937 64.0376 17.0221 63.655 17.1906C63.2795 17.3609 62.9436 17.6096 62.6694 17.9204C62.3763 18.2522 62.1471 18.6365 61.9934 19.0537C61.8226 19.523 61.737 20.0197 61.7406 20.5198V20.5646C61.737 21.0648 61.8226 21.5615 61.9934 22.0308C62.1471 22.4479 62.3763 22.8323 62.6694 23.164C62.9436 23.4749 63.2795 23.7236 63.655 23.8939C64.0376 24.0624 64.4509 24.1475 64.8681 24.1436C65.2851 24.1461 65.6982 24.0611 66.0812 23.8939C66.4568 23.7205 66.7941 23.4723 67.0731 23.164C67.3708 22.8383 67.6045 22.458 67.7618 22.0436C67.9348 21.5705 68.0204 21.0692 68.0145 20.5646V20.5198Z" fill="#04385F"/>
<path id="Vector_7" d="M85.9517 23.4137C85.6557 24.1871 85.2161 24.8956 84.6565 25.5009C84.1336 26.059 83.4978 26.4958 82.7926 26.7814C82.0898 27.068 81.3388 27.2137 80.5813 27.2104C79.7407 27.2455 78.9065 27.0485 78.1677 26.6406C77.5679 26.2864 77.0281 25.8368 76.5693 25.3089V30.815H72.9174V14.0854H76.5693V15.9165C77.0105 15.3195 77.562 14.8151 78.193 14.4311C78.9201 14.0149 79.7468 13.811 80.5813 13.8421C81.3309 13.8424 82.0733 13.9902 82.7673 14.2774C83.4822 14.562 84.1286 14.9987 84.6628 15.5579C85.2244 16.1702 85.6623 16.888 85.9517 17.6708C86.2952 18.5795 86.4625 19.5469 86.4445 20.5198V20.5646C86.4625 21.5376 86.2952 22.505 85.9517 23.4137ZM82.7926 20.5198C82.7994 20.0194 82.7137 19.5221 82.5399 19.0537C82.384 18.6362 82.1526 18.2518 81.8575 17.9204C81.5752 17.6132 81.236 17.3652 80.8593 17.1906C80.4763 17.0234 80.0632 16.9383 79.6462 16.9409C79.229 16.937 78.8157 17.0221 78.4331 17.1906C78.0576 17.3609 77.7217 17.6096 77.4475 17.9204C77.1564 18.2525 76.9293 18.6369 76.7778 19.0537C76.6039 19.5221 76.5182 20.0194 76.525 20.5198V20.5646C76.5182 21.0651 76.6039 21.5624 76.7778 22.0308C76.9293 22.4476 77.1564 22.8319 77.4475 23.164C77.7217 23.4749 78.0576 23.7236 78.4331 23.8939C78.8157 24.0624 79.229 24.1475 79.6462 24.1436C80.0632 24.1461 80.4763 24.0611 80.8593 23.8939C81.236 23.7193 81.5752 23.4713 81.8575 23.164C82.151 22.8363 82.3824 22.4564 82.5399 22.0436C82.7159 21.5713 82.8016 21.0694 82.7926 20.5646V20.5198Z" fill="#04385F"/>
<path id="Vector_8" d="M100.957 23.1704C100.61 23.969 100.112 24.6911 99.4914 25.2961C98.8508 25.9136 98.1004 26.4024 97.28 26.7366C95.4933 27.4365 93.5132 27.4365 91.7264 26.7366C90.9104 26.4167 90.1652 25.9357 89.534 25.3217C88.9157 24.7225 88.4216 24.0041 88.0809 23.2089C87.7258 22.3875 87.545 21.4997 87.5501 20.6031V20.5519C87.5435 19.655 87.7244 18.7669 88.0809 17.9461C88.4253 17.1475 88.9211 16.4253 89.5404 15.8204C90.181 15.2029 90.9314 14.7141 91.7517 14.3799C93.5385 13.68 95.5185 13.68 97.3053 14.3799C98.1189 14.7047 98.8632 15.1851 99.4977 15.7948C100.118 16.3966 100.614 17.1169 100.957 17.9141C101.309 18.7363 101.487 19.6238 101.482 20.5198V20.5646C101.487 21.4607 101.309 22.3482 100.957 23.1704ZM97.8803 20.5646C97.8817 20.1012 97.8003 19.6414 97.6402 19.2073C97.4819 18.7901 97.2459 18.4075 96.9452 18.0805C96.6355 17.7522 96.2666 17.487 95.8585 17.2994C95.4296 17.1042 94.9639 17.0059 94.4938 17.0113C94.0102 17.001 93.53 17.0949 93.0848 17.2866C92.6894 17.4625 92.3344 17.7198 92.0423 18.0421C91.7487 18.3662 91.523 18.7474 91.3789 19.1625C91.2253 19.598 91.1483 20.0574 91.1515 20.5198V20.5646C91.1501 21.0281 91.2314 21.4879 91.3916 21.922C91.5483 22.34 91.7844 22.7229 92.0866 23.0488C92.3911 23.3774 92.7559 23.6427 93.1606 23.8299C93.5932 24.0277 94.0635 24.1261 94.538 24.118C95.0216 24.1283 95.5018 24.0344 95.9469 23.8427C96.3437 23.6692 96.6991 23.4116 96.9894 23.0872C97.2703 22.7616 97.4851 22.3831 97.6212 21.9732C97.7744 21.5376 97.8513 21.0783 97.8487 20.6159L97.8803 20.5646Z" fill="#04385F"/>
<path id="Vector_9" d="M110.257 17.6835C109.73 17.6553 109.202 17.7392 108.708 17.93C108.214 18.1207 107.765 18.4141 107.389 18.7912C106.686 19.5253 106.336 20.6692 106.34 22.2229V26.9799H102.688V14.0854H106.34V16.6783C106.668 15.8593 107.189 15.1339 107.857 14.5655C108.602 14.0076 109.525 13.7498 110.447 13.8421V17.6835H110.257Z" fill="#04385F"/>
<path id="Vector_10" d="M118.673 26.9927C118.15 27.1362 117.61 27.2051 117.068 27.1976C116.553 27.2009 116.04 27.1407 115.539 27.0183C115.101 26.9069 114.697 26.6869 114.364 26.378C114.017 26.0496 113.752 25.6411 113.593 25.1872C113.394 24.5897 113.302 23.9609 113.322 23.3305V17.229H111.78V14.0854H113.322V10.7945H116.974V14.0854H120V17.2098H116.974V22.7094C116.974 23.5631 117.365 23.9793 118.149 23.9579C118.777 23.9599 119.396 23.8037 119.949 23.5033V26.4293C119.55 26.6723 119.121 26.8616 118.673 26.9927Z" fill="#04385F"/>
</g>
<defs>
<clipPath id="clip0_1552_2091">
<rect width="120" height="40.9756" fill="white"/>
</clipPath>
</defs>
</svg>
