<svg width="14" height="15" viewBox="0 0 14 15" fill="none" xmlns="http://www.w3.org/2000/svg">
<rect width="14" height="15" fill="#414141"/>
<g clip-path="url(#clip0_1552_1690)">
<rect width="1440" height="3452" transform="translate(-1055 -70)" fill="white"/>
<rect x="-1054" y="-70" width="1440" height="3452" fill="#F1F1F1"/>
<g filter="url(#filter0_d_1552_1690)">
<rect x="-1055" y="-30" width="1440" height="75" fill="white"/>
</g>
<rect x="-9.5" y="-9.5" width="133" height="34" rx="4.5" stroke="#464646"/>
<path d="M9.33335 1.66666H4.66669C2.73644 1.66666 1.16669 3.23641 1.16669 5.16666V12.1667C1.16669 12.3214 1.22815 12.4697 1.33754 12.5791C1.44694 12.6885 1.59531 12.75 1.75002 12.75H9.33335C11.2636 12.75 12.8334 11.1802 12.8334 9.24999V5.16666C12.8334 3.23641 11.2636 1.66666 9.33335 1.66666ZM11.6667 9.24999C11.6667 10.5368 10.6202 11.5833 9.33335 11.5833H2.33335V5.16666C2.33335 3.87982 3.37985 2.83332 4.66669 2.83332H9.33335C10.6202 2.83332 11.6667 3.87982 11.6667 5.16666V9.24999Z" fill="#464646"/>
<path d="M5.54169 8.08334C6.02494 8.08334 6.41669 7.69159 6.41669 7.20834C6.41669 6.72509 6.02494 6.33334 5.54169 6.33334C5.05844 6.33334 4.66669 6.72509 4.66669 7.20834C4.66669 7.69159 5.05844 8.08334 5.54169 8.08334Z" fill="#464646"/>
<path d="M8.45831 8.08334C8.94156 8.08334 9.33331 7.69159 9.33331 7.20834C9.33331 6.72509 8.94156 6.33334 8.45831 6.33334C7.97506 6.33334 7.58331 6.72509 7.58331 7.20834C7.58331 7.69159 7.97506 8.08334 8.45831 8.08334Z" fill="#464646"/>
</g>
<defs>
<filter id="filter0_d_1552_1690" x="-1068" y="-43" width="1466" height="101" filterUnits="userSpaceOnUse" color-interpolation-filters="sRGB">
<feFlood flood-opacity="0" result="BackgroundImageFix"/>
<feColorMatrix in="SourceAlpha" type="matrix" values="0 0 0 0 0 0 0 0 0 0 0 0 0 0 0 0 0 0 127 0" result="hardAlpha"/>
<feOffset/>
<feGaussianBlur stdDeviation="6.5"/>
<feComposite in2="hardAlpha" operator="out"/>
<feColorMatrix type="matrix" values="0 0 0 0 0 0 0 0 0 0 0 0 0 0 0 0 0 0 0.07 0"/>
<feBlend mode="normal" in2="BackgroundImageFix" result="effect1_dropShadow_1552_1690"/>
<feBlend mode="normal" in="SourceGraphic" in2="effect1_dropShadow_1552_1690" result="shape"/>
</filter>
<clipPath id="clip0_1552_1690">
<rect width="1440" height="3452" fill="white" transform="translate(-1055 -70)"/>
</clipPath>
</defs>
</svg>
