<svg width="22" height="22" viewBox="0 0 22 22" fill="none" xmlns="http://www.w3.org/2000/svg">
<path d="M6.875 20.625C7.63439 20.625 8.25 20.0094 8.25 19.25C8.25 18.4906 7.63439 17.875 6.875 17.875C6.11561 17.875 5.5 18.4906 5.5 19.25C5.5 20.0094 6.11561 20.625 6.875 20.625Z" fill="#04385F"/>
<path d="M16.5 20.625C17.2594 20.625 17.875 20.0094 17.875 19.25C17.875 18.4906 17.2594 17.875 16.5 17.875C15.7406 17.875 15.125 18.4906 15.125 19.25C15.125 20.0094 15.7406 20.625 16.5 20.625Z" fill="#04385F"/>
<mask id="path-3-inside-1_1888_247" fill="white">
<path d="M3.42375 1.92775C3.39261 1.77196 3.30847 1.63175 3.18564 1.53098C3.06281 1.43021 2.90888 1.3751 2.75 1.375H0V2.75H2.18625L4.82625 15.9472C4.85739 16.103 4.94153 16.2432 5.06436 16.344C5.18718 16.4448 5.34112 16.4999 5.5 16.5H17.875V15.125H6.06375L5.51375 12.375H17.875C18.0314 12.375 18.1831 12.3216 18.3051 12.2238C18.4271 12.1259 18.5121 11.9894 18.546 11.8367L20.1052 4.8125H18.6979L17.3236 11H5.23875L3.42375 1.92775Z"/>
</mask>
<path d="M3.42375 1.92775C3.39261 1.77196 3.30847 1.63175 3.18564 1.53098C3.06281 1.43021 2.90888 1.3751 2.75 1.375H0V2.75H2.18625L4.82625 15.9472C4.85739 16.103 4.94153 16.2432 5.06436 16.344C5.18718 16.4448 5.34112 16.4999 5.5 16.5H17.875V15.125H6.06375L5.51375 12.375H17.875C18.0314 12.375 18.1831 12.3216 18.3051 12.2238C18.4271 12.1259 18.5121 11.9894 18.546 11.8367L20.1052 4.8125H18.6979L17.3236 11H5.23875L3.42375 1.92775Z" fill="#04385F"/>
<path d="M3.42375 1.92775L1.95284 2.22175L1.9529 2.22201L3.42375 1.92775ZM2.75 1.375L2.75091 -0.125H2.75V1.375ZM0 1.375V-0.125H-1.5V1.375H0ZM0 2.75H-1.5V4.25H0V2.75ZM2.18625 2.75L3.65711 2.45577L3.41591 1.25H2.18625V2.75ZM4.82625 15.9472L6.29716 15.6532L6.29711 15.653L4.82625 15.9472ZM5.5 16.5L5.49909 18H5.5V16.5ZM17.875 16.5V18H19.375V16.5H17.875ZM17.875 15.125H19.375V13.625H17.875V15.125ZM6.06375 15.125L4.59288 15.4192L4.83404 16.625H6.06375V15.125ZM5.51375 12.375V10.875H3.68404L4.04288 12.6692L5.51375 12.375ZM17.875 12.375V13.875H17.8753L17.875 12.375ZM18.546 11.8367L20.0103 12.1622L20.0104 12.1617L18.546 11.8367ZM20.1052 4.8125L21.5696 5.13756L21.9747 3.3125H20.1052V4.8125ZM18.6979 4.8125V3.3125H17.4945L17.2336 4.48726L18.6979 4.8125ZM17.3236 11V12.5H18.527L18.7879 11.3252L17.3236 11ZM5.23875 11L3.7679 11.2943L4.00912 12.5H5.23875V11ZM4.89466 1.63375C4.79557 1.13804 4.52787 0.691947 4.13705 0.371315L2.23424 2.69065C2.08908 2.57156 1.98965 2.40587 1.95284 2.22175L4.89466 1.63375ZM4.13705 0.371315C3.74623 0.0506833 3.25642 -0.124694 2.75091 -0.125L2.74909 2.875C2.56133 2.87489 2.3794 2.80975 2.23424 2.69065L4.13705 0.371315ZM2.75 -0.125H0V2.875H2.75V-0.125ZM-1.5 1.375V2.75H1.5V1.375H-1.5ZM0 4.25H2.18625V1.25H0V4.25ZM0.715391 3.04423L3.35539 16.2415L6.29711 15.653L3.65711 2.45577L0.715391 3.04423ZM3.35534 16.2412C3.45442 16.737 3.72213 17.1831 4.11295 17.5037L6.01576 15.1843C6.16092 15.3034 6.26035 15.4691 6.29716 15.6532L3.35534 16.2412ZM4.11295 17.5037C4.50377 17.8243 4.99358 17.9997 5.49909 18L5.50091 15C5.68867 15.0001 5.8706 15.0653 6.01576 15.1843L4.11295 17.5037ZM5.5 18H17.875V15H5.5V18ZM19.375 16.5V15.125H16.375V16.5H19.375ZM17.875 13.625H6.06375V16.625H17.875V13.625ZM7.53462 14.8308L6.98462 12.0808L4.04288 12.6692L4.59288 15.4192L7.53462 14.8308ZM5.51375 13.875H17.875V10.875H5.51375V13.875ZM17.8753 13.875C18.3729 13.8749 18.8556 13.7052 19.2437 13.3938L17.3664 11.0537C17.5106 10.9381 17.6899 10.875 17.8747 10.875L17.8753 13.875ZM19.2437 13.3938C19.6319 13.0824 19.9023 12.6479 20.0103 12.1622L17.0817 11.5112C17.1218 11.3308 17.2223 11.1694 17.3664 11.0537L19.2437 13.3938ZM20.0104 12.1617L21.5696 5.13756L18.6409 4.48744L17.0816 11.5116L20.0104 12.1617ZM20.1052 3.3125H18.6979V6.3125H20.1052V3.3125ZM17.2336 4.48726L15.8593 10.6748L18.7879 11.3252L20.1623 5.13774L17.2336 4.48726ZM17.3236 9.5H5.23875V12.5H17.3236V9.5ZM6.7096 10.7057L4.8946 1.63349L1.9529 2.22201L3.7679 11.2943L6.7096 10.7057Z" fill="#04385F" mask="url(#path-3-inside-1_1888_247)"/>
<path d="M12.375 4.125V1.375H11V4.125H8.25V5.5H11V8.25H12.375V5.5H15.125V4.125H12.375Z" fill="#04385F"/>
</svg>
