<svg width="110" height="35" viewBox="0 0 110 35" fill="none" xmlns="http://www.w3.org/2000/svg">
<path d="M108.139 29.5878C108.139 31.3277 106.762 32.7381 105.065 32.7381H4.39134C3.57474 32.7404 2.79083 32.4093 2.21265 31.8183C1.63445 31.2273 1.30951 30.4247 1.30951 29.5878V4.45983C1.31394 2.71866 2.69242 1.30956 4.39134 1.30957H105.089C106.777 1.32312 108.139 2.72958 108.139 4.45983V29.5878Z" fill="black" stroke="#979797"/>
<path d="M23.2023 16.8754C23.2251 15.2392 24.0892 13.7282 25.4929 12.8707C24.6015 11.6067 23.1621 10.8341 21.6089 10.7859C19.949 10.6128 18.3971 11.7582 17.5589 11.7582C16.7207 11.7582 15.4261 10.8023 14.0483 10.8353C12.2329 10.8948 10.582 11.8958 9.69958 13.4722C7.81566 16.7024 9.21823 21.457 11.0274 24.0693C11.9321 25.3465 12.9861 26.7803 14.3471 26.7309C15.7081 26.6814 16.1978 25.9068 17.8245 25.9068C19.4511 25.9068 19.9075 26.7309 21.3184 26.7309C22.7293 26.7309 23.6754 25.4453 24.5468 24.1517C25.1946 23.2409 25.6931 22.2341 26.024 21.1687C24.2957 20.4358 23.1821 18.7414 23.2023 16.8754Z" fill="white"/>
<path d="M20.5465 9.07194C21.3368 8.1318 21.727 6.92275 21.6337 5.70166C20.4282 5.82618 19.3142 6.39693 18.5132 7.30027C17.7231 8.19291 17.3229 9.36103 17.4012 10.547C18.6219 10.5598 19.7811 10.0162 20.5465 9.07194Z" fill="white"/>
<path fill-rule="evenodd" clip-rule="evenodd" d="M40.8298 26.5332H42.7221L39.1451 15.5735H36.9459L33.3938 26.5332H35.2279L36.2156 23.3112H39.8008L40.8298 26.5332ZM38.5642 19.1333L39.4937 22.0009H36.5225L37.5102 19.125C37.7481 18.2131 37.9224 17.5236 38.033 17.0568C38.282 18.128 38.459 18.8202 38.5642 19.1333Z" fill="white"/>
<path fill-rule="evenodd" clip-rule="evenodd" d="M50.7639 25.6761C51.5321 24.7945 51.925 23.651 51.8594 22.4871C51.903 21.4299 51.5579 20.3932 50.8885 19.57C50.2463 18.8161 49.2829 18.4082 48.2904 18.47C47.2979 18.5317 46.3933 19.0556 45.8509 19.8831L45.7512 18.6307H44.1909C44.2352 19.5206 44.2573 20.3886 44.2573 21.2345V29.7551H46.0665V25.5937C46.5509 26.3546 47.4202 26.7863 48.3239 26.7144C49.25 26.7338 50.1394 26.3553 50.7639 25.6761ZM49.5356 20.6494C49.9016 21.2161 50.084 21.8804 50.0585 22.553C50.0924 23.2648 49.8977 23.9688 49.5025 24.5636C49.1484 25.067 48.56 25.3561 47.9422 25.3299C47.4141 25.3479 46.9057 25.1302 46.5562 24.7367C46.1991 24.3351 46.0092 23.8136 46.025 23.2782V21.9598C46.0313 21.7785 46.0592 21.5987 46.1081 21.424C46.2047 20.9802 46.4506 20.5821 46.8052 20.2952C47.1376 20.018 47.5578 19.8662 47.9919 19.8666C48.6072 19.85 49.1886 20.1449 49.5356 20.6494Z" fill="white"/>
<path fill-rule="evenodd" clip-rule="evenodd" d="M59.9262 25.6761C60.6943 24.7945 61.0872 23.651 61.0217 22.4871C61.0645 21.4301 60.7195 20.3936 60.0507 19.57C59.4085 18.8161 58.4451 18.4082 57.4526 18.47C56.4602 18.5317 55.5556 19.0556 55.0131 19.8831L54.9136 18.6307H53.3533C53.3975 19.5206 53.4197 20.3886 53.4197 21.2345V29.7551H55.2289V25.5937C55.7132 26.3546 56.5826 26.7863 57.4863 26.7144C58.4125 26.7349 59.3023 26.3562 59.9262 25.6761ZM58.698 20.6494C59.0638 21.2161 59.2464 21.8804 59.2207 22.553C59.2525 23.2519 59.064 23.9433 58.6813 24.5307C58.3274 25.0341 57.7389 25.3231 57.121 25.2971C56.5814 25.3383 56.0522 25.1319 55.6853 24.7367C55.3289 24.3347 55.1391 23.8135 55.1541 23.2782V21.9598C55.1609 21.7786 55.1888 21.5988 55.2372 21.424C55.3333 20.98 55.5792 20.5816 55.9343 20.2952C56.2667 20.018 56.6871 19.8662 57.121 19.8666C57.7479 19.8385 58.3445 20.1347 58.698 20.6494Z" fill="white"/>
<path d="M71.2297 23.4594C71.258 24.3239 70.8995 25.1567 70.2503 25.7338C69.4059 26.4175 68.3338 26.7615 67.2461 26.6978C66.2457 26.7447 65.2524 26.5074 64.3829 26.0139L64.7895 24.5471C65.5595 25.012 66.4446 25.2546 67.3457 25.2475C67.9018 25.2824 68.4531 25.1252 68.906 24.8026C69.2709 24.5138 69.4771 24.0708 69.462 23.6078C69.4718 23.1877 69.3067 22.7822 69.0055 22.4871C68.5588 22.1112 68.0391 21.8307 67.4785 21.663C65.5531 20.9269 64.5903 19.8693 64.5903 18.4905C64.5607 17.618 64.9447 16.7823 65.6277 16.2326C66.3988 15.6405 67.3605 15.3475 68.3333 15.4086C69.1931 15.3808 70.0471 15.5589 70.823 15.9278L70.3997 17.3616C69.7486 17.0186 69.0204 16.8456 68.2834 16.8589C67.757 16.8261 67.2369 16.9876 66.8228 17.3121C66.5389 17.5629 66.3783 17.9236 66.3829 18.301C66.3757 18.7165 66.5626 19.1122 66.8892 19.3722C67.3785 19.7299 67.922 20.008 68.4992 20.1962C69.2936 20.4742 70.0123 20.9312 70.5989 21.5312C71.0457 22.0725 71.2708 22.7608 71.2297 23.4594Z" fill="white"/>
<path d="M77.1138 19.9491H75.1634V23.789C75.1634 24.7668 75.5065 25.2558 76.1925 25.2558C76.4579 25.2614 76.7228 25.2338 76.981 25.1734L77.039 26.5001C76.595 26.6453 76.1288 26.7123 75.6614 26.6978C75.0413 26.7375 74.4348 26.5057 74.0016 26.0634C73.5486 25.4475 73.339 24.6881 73.4123 23.9291V19.9491H72.2505V18.6305H73.4123V17.1802L75.1469 16.6611V18.6305H77.0972L77.1138 19.9491Z" fill="white"/>
<path fill-rule="evenodd" clip-rule="evenodd" d="M84.8653 25.5114C85.5812 24.6809 85.9548 23.6125 85.9109 22.5202C85.9602 21.4627 85.5975 20.427 84.8984 19.6279C84.1738 18.8509 83.1422 18.4291 82.0766 18.4742C80.9876 18.4239 79.9314 18.8519 79.1886 19.6443C78.4559 20.4732 78.0725 21.5501 78.1179 22.652C78.0798 23.7171 78.4506 24.7569 79.1553 25.5608C79.8664 26.3372 80.888 26.7599 81.9438 26.7145C83.0488 26.7617 84.1183 26.3213 84.8653 25.5114ZM83.6038 20.6991C83.9333 21.2699 84.097 21.9202 84.0768 22.5779C84.0847 23.2457 83.9034 23.9024 83.5539 24.4731C83.2399 25.0598 82.6255 25.4265 81.9564 25.4265C81.2872 25.4265 80.6728 25.0598 80.3588 24.4731C80.0318 23.9073 79.8681 23.263 79.8857 22.6109C79.8629 21.9425 80.0266 21.2808 80.3588 20.6991C80.6786 20.0887 81.3265 19.7188 82.0186 19.7514C82.6857 19.7417 83.3002 20.1091 83.6038 20.6991Z" fill="white"/>
<path d="M91.6622 20.1718C91.4787 20.1385 91.2927 20.122 91.1062 20.1223C90.5355 20.0933 89.9899 20.358 89.6622 20.8227C89.3526 21.2854 89.1986 21.8334 89.2223 22.3884V26.5085H87.4546V21.0946C87.4546 20.1828 87.4324 19.3587 87.3882 18.6226H88.9318L88.9982 20.1388H89.048C89.2161 19.6449 89.5245 19.2099 89.936 18.8862C90.3054 18.6133 90.7537 18.466 91.2141 18.466C91.3605 18.4547 91.5076 18.4547 91.654 18.466L91.6622 20.1718Z" fill="white"/>
<path fill-rule="evenodd" clip-rule="evenodd" d="M99.5132 23.031C99.5631 22.7593 99.5854 22.4833 99.5796 22.207C99.6019 21.3362 99.3557 20.4796 98.8742 19.7515C98.287 18.9072 97.3001 18.4266 96.2683 18.4824C95.1882 18.4405 94.1528 18.9117 93.4797 19.7515C92.8049 20.5949 92.4549 21.6495 92.4922 22.7262C92.4385 23.7941 92.8181 24.8388 93.5461 25.6268C94.3223 26.3753 95.3788 26.7668 96.4591 26.7062C97.3742 26.7287 98.284 26.5632 99.1315 26.22L98.8577 25.0004C98.1708 25.2564 97.4417 25.3822 96.7081 25.3713C96.0823 25.3983 95.4672 25.2025 94.9736 24.8192C94.4616 24.3666 94.1787 23.7113 94.2018 23.031H99.5132ZM97.5796 20.4024C97.8256 20.8093 97.9441 21.2798 97.9198 21.7539H94.235C94.275 21.2578 94.4562 20.7834 94.7578 20.3859C95.0754 19.925 95.6065 19.6552 96.1687 19.669C96.7395 19.6352 97.2824 19.9174 97.5796 20.4024Z" fill="white"/>
<path fill-rule="evenodd" clip-rule="evenodd" d="M38.033 11.0166C38.6329 10.4472 38.9386 9.63714 38.8629 8.81649C38.9197 8.08101 38.6427 7.35878 38.1077 6.84705C37.4883 6.39319 36.726 6.174 35.9582 6.22903C35.4552 6.22745 34.9529 6.26603 34.4561 6.34439V11.6264C34.8776 11.6734 35.3016 11.6954 35.7258 11.6924C36.5512 11.7454 37.3687 11.5059 38.033 11.0166ZM37.4437 7.36619C37.8031 7.76174 37.9857 8.28496 37.95 8.81649H37.9831C38.0371 9.41587 37.8422 10.0111 37.4437 10.4645C37.0095 10.838 36.4378 11.0143 35.8669 10.9507C35.6706 10.9633 35.4738 10.9633 35.2777 10.9507V6.92121C35.5076 6.88008 35.7411 6.86077 35.9748 6.86353C36.5129 6.82576 37.0433 7.00726 37.4437 7.36619Z" fill="white"/>
<path fill-rule="evenodd" clip-rule="evenodd" d="M43.2532 11.1073C43.6041 10.6999 43.7878 10.1763 43.7677 9.64051C43.7878 9.11867 43.6067 8.60884 43.2614 8.21494C42.9054 7.83343 42.399 7.62569 41.8755 7.64636C41.3401 7.62251 40.8212 7.83342 40.4563 8.22317C40.0981 8.63019 39.911 9.15817 39.9335 9.6982C39.9152 10.2237 40.0992 10.7364 40.448 11.132C40.797 11.5137 41.2986 11.722 41.8174 11.7006C42.3607 11.7229 42.8862 11.5057 43.2532 11.1073ZM42.6308 8.81647C42.7755 9.0679 42.8553 9.35099 42.8631 9.6405V9.69818C42.8827 10.0378 42.8019 10.3758 42.6308 10.6705C42.4884 10.9677 42.1817 11.1524 41.8505 11.1402C41.5068 11.161 41.1825 10.9806 41.0207 10.6788C40.8591 10.3982 40.7787 10.0789 40.7882 9.75585C40.777 9.42743 40.8574 9.1023 41.0207 8.81647C41.181 8.51308 41.5064 8.33213 41.8505 8.355C42.1799 8.3414 42.486 8.52251 42.6308 8.81647Z" fill="white"/>
<path d="M50.2825 7.76172L49.0626 11.6429H48.2326L47.7263 9.99484C47.5998 9.58295 47.4946 9.16489 47.411 8.74232C47.3356 9.16665 47.2302 9.58519 47.0957 9.99484L46.5562 11.6429H45.7263L44.6141 7.76172H45.5021L45.9504 9.64051C46.0555 10.0745 46.144 10.4893 46.2159 10.8848C46.2823 10.5607 46.3902 10.1487 46.5395 9.64874L47.0957 7.79468H47.801L48.3323 9.60754C48.4594 10.0525 48.5646 10.4783 48.6476 10.8848C48.7131 10.4546 48.8017 10.0283 48.9132 9.60754L49.3862 7.79468H50.2161L50.2825 7.76172Z" fill="white"/>
<path d="M54.7973 11.6429H53.9675V9.41805C53.9675 8.73135 53.7046 8.38801 53.179 8.38801C52.9378 8.38592 52.7076 8.4882 52.5483 8.66818C52.3891 8.85426 52.3036 9.09152 52.3076 9.33564V11.6429H51.4777V8.87418C51.4777 8.53359 51.4777 8.16277 51.4777 7.76174H52.1416V8.37153C52.2466 8.17846 52.4013 8.01642 52.5897 7.90183C52.8259 7.75489 53.0995 7.67772 53.3782 7.67934C53.7185 7.66853 54.0484 7.79657 54.291 8.03368C54.6136 8.38193 54.7758 8.8475 54.7393 9.31916L54.7973 11.6429Z" fill="white"/>
<path d="M57.1958 11.6428H56.2912V5.98169H57.121L57.1958 11.6428Z" fill="white"/>
<path fill-rule="evenodd" clip-rule="evenodd" d="M61.8018 11.1072C62.1528 10.6998 62.3365 10.1761 62.3163 9.64039C62.3327 9.13197 62.1581 8.63567 61.8267 8.24778C61.4706 7.86627 60.9642 7.65853 60.4407 7.6792C59.9106 7.64686 59.3924 7.84541 59.0215 8.22305C58.6604 8.62881 58.4702 9.15693 58.4904 9.69807C58.4698 10.2225 58.6508 10.735 58.9967 11.1319C59.345 11.5146 59.8471 11.723 60.366 11.7005C60.9094 11.7228 61.4349 11.5056 61.8018 11.1072ZM61.1794 8.81636C61.3241 9.0678 61.404 9.35088 61.4118 9.64039V9.69807C61.4364 10.02 61.3703 10.3425 61.2209 10.6292C61.0785 10.9264 60.7719 11.1111 60.4408 11.0989C60.0969 11.1197 59.7727 10.9393 59.6108 10.6375C59.4566 10.369 59.3764 10.0648 59.3785 9.75576C59.3671 9.42733 59.4475 9.10219 59.6108 8.81636C59.7567 8.51956 60.0671 8.33794 60.3993 8.35491C60.7285 8.3413 61.0347 8.5224 61.1794 8.81636Z" fill="white"/>
<path fill-rule="evenodd" clip-rule="evenodd" d="M65.744 11.6428H66.524C66.4825 11.3287 66.4659 11.0119 66.4743 10.6952V9.26139C66.4743 8.19016 65.9624 7.65454 64.9389 7.65454C64.4676 7.63844 64.0012 7.75561 63.5944 7.99238L63.7604 8.58569C64.057 8.39553 64.4031 8.29531 64.7563 8.29728C65.3096 8.29728 65.5862 8.55273 65.5862 9.06362V9.09658C65.0089 9.06472 64.4342 9.19312 63.9263 9.4674C63.54 9.69244 63.3102 10.1108 63.3288 10.5551C63.312 10.8601 63.4231 11.1585 63.6359 11.3791C63.87 11.6188 64.1962 11.7478 64.5323 11.7335C64.9804 11.7572 65.4106 11.556 65.6776 11.1979L65.744 11.6428ZM65.6194 9.70636V10.2997C65.6223 10.5422 65.5043 10.7705 65.3041 10.9095C65.1517 11.0259 64.9652 11.0896 64.773 11.0907C64.6179 11.0969 64.4664 11.0438 64.3496 10.9424C64.2312 10.8221 64.1708 10.6569 64.1837 10.4892C64.1837 9.96731 64.6623 9.70636 65.6194 9.70636Z" fill="white"/>
<path fill-rule="evenodd" clip-rule="evenodd" d="M70.6986 11.6428H71.4704C71.4483 11.3242 71.4427 10.9781 71.4538 10.6045V5.98169H70.6238V8.19833C70.3853 7.83011 69.9587 7.62623 69.5201 7.67096C69.0547 7.66372 68.6104 7.86316 68.3084 8.21482C67.9566 8.64387 67.7764 9.18659 67.8022 9.73928C67.7779 10.2572 67.9429 10.7664 68.2669 11.1731C68.5515 11.5295 68.9873 11.7337 69.4454 11.7252C69.9687 11.761 70.4626 11.4817 70.6986 11.0165V11.6428ZM70.5658 9.34375V9.99474V10.003C70.5773 10.2555 70.4978 10.5038 70.3417 10.7034C70.178 10.9149 69.9214 11.0347 69.6529 11.0248C69.3486 11.0327 69.0612 10.8869 68.8893 10.6375C68.7001 10.3614 68.6069 10.0316 68.6238 9.69808C68.6111 9.34982 68.7098 9.00651 68.906 8.71748C69.0778 8.46806 69.3652 8.32221 69.6694 8.33019C69.8837 8.32445 70.0919 8.40122 70.2505 8.54444C70.4096 8.68223 70.5201 8.86707 70.5658 9.07182C70.5756 9.16221 70.5756 9.25336 70.5658 9.34375Z" fill="white"/>
<path fill-rule="evenodd" clip-rule="evenodd" d="M78.3919 11.1072C78.7428 10.6998 78.9266 10.1761 78.9064 9.64039C78.925 9.13306 78.7536 8.63688 78.425 8.24778C78.0696 7.86535 77.5628 7.65742 77.0391 7.6792C76.506 7.64443 75.9845 7.84316 75.6116 8.22307C75.2505 8.62882 75.0603 9.15694 75.0805 9.69808C75.0599 10.2225 75.2409 10.735 75.5868 11.1319C75.9357 11.5136 76.4373 11.7219 76.9561 11.7005C77.4997 11.7239 78.0256 11.5066 78.3919 11.1072ZM77.7695 8.81637C77.9142 9.0678 77.9941 9.3509 78.0018 9.64041V9.69809C78.017 10.0259 77.9394 10.3513 77.7777 10.6375C77.6236 10.9256 77.322 11.1056 76.9934 11.1056C76.6649 11.1056 76.3633 10.9256 76.2092 10.6375C76.0549 10.369 75.9748 10.0649 75.9769 9.75577C75.9655 9.42735 76.0459 9.1022 76.2092 8.81637C76.3616 8.52955 76.6627 8.35143 76.9893 8.35491C77.3186 8.34132 77.6248 8.52241 77.7695 8.81637Z" fill="white"/>
<path d="M83.5788 11.6429H82.749V9.41798C82.749 8.73128 82.4723 8.38793 81.919 8.38793C81.6763 8.37874 81.4431 8.48231 81.2883 8.66811C81.1284 8.85381 81.0428 9.09132 81.0476 9.33557V11.6429H80.2177V8.87411C80.2177 8.53351 80.2177 8.1627 80.2177 7.76167H80.9812V8.37145C81.0869 8.17884 81.2414 8.01695 81.4294 7.90176C81.6775 7.74708 81.9665 7.66961 82.2593 7.67927C82.5995 7.66846 82.9295 7.7965 83.1722 8.0336C83.4946 8.38186 83.657 8.84743 83.6203 9.31908L83.5788 11.6429Z" fill="white"/>
<path d="M89.438 8.40447H88.4836V10.2915C88.4836 10.7694 88.6579 11.0084 88.9899 11.0084C89.1194 11.0249 89.2505 11.0249 89.38 11.0084V11.6676C89.1634 11.7394 88.9359 11.7729 88.7077 11.7665C88.3978 11.7909 88.0932 11.676 87.8778 11.4534C87.6549 11.1517 87.5515 10.7793 87.5874 10.4069V8.40447H87.0147V7.76173H87.5874V7.05306L88.4172 6.79761V7.76173H89.3716V8.40447H89.438Z" fill="white"/>
<path d="M94.0357 11.6428H93.2059V9.43438C93.2059 8.73671 92.943 8.38786 92.4174 8.38786C92.034 8.37378 91.6909 8.62251 91.5875 8.9894C91.5723 9.09324 91.5723 9.1987 91.5875 9.30254V11.6428H90.7576V5.98169H91.5875V8.32194C91.8335 7.91197 92.2858 7.6685 92.766 7.68744C93.0856 7.6708 93.3989 7.78041 93.6373 7.99233C93.9544 8.34995 94.1128 8.81924 94.0772 9.2943L94.0357 11.6428Z" fill="white"/>
<path fill-rule="evenodd" clip-rule="evenodd" d="M98.7912 9.91232C98.8038 9.78077 98.8038 9.64834 98.7912 9.51678C98.7902 9.08526 98.6539 8.66474 98.4011 8.3137C98.1146 7.89748 97.6301 7.66002 97.123 7.68744C96.5919 7.66645 96.0828 7.89929 95.7537 8.3137C95.4241 8.7278 95.2534 9.24476 95.2723 9.77223C95.2447 10.2967 95.4301 10.8102 95.7869 11.1978C96.1673 11.5644 96.6851 11.7557 97.2143 11.7252C97.6632 11.7344 98.1092 11.6531 98.5257 11.4862L98.3929 10.8847C98.0559 11.0099 97.6984 11.0714 97.3388 11.066C97.0388 11.0736 96.7455 10.9775 96.5089 10.794C96.2559 10.5711 96.116 10.248 96.1271 9.91232H98.7912ZM97.7953 8.62683C97.9171 8.82759 97.975 9.06027 97.9613 9.29429L96.1604 9.28606C96.1821 9.04419 96.2712 8.81311 96.4176 8.61859C96.5741 8.39463 96.8319 8.26198 97.1064 8.26425C97.3856 8.25084 97.6499 8.38991 97.7953 8.62683Z" fill="white"/>
</svg>
