<svg width="22" height="22" viewBox="0 0 22 22" fill="none" xmlns="http://www.w3.org/2000/svg">
<g clip-path="url(#clip0_1620_191)">
<path d="M11.4812 0.0183333C12.6821 0 13.8737 0.00916667 15.0654 0C15.1387 1.4025 15.6429 2.8325 16.6696 3.8225C17.6962 4.84 19.1446 5.3075 20.5562 5.46333V9.1575C19.2362 9.11167 17.9071 8.83667 16.7062 8.26833C16.1837 8.03 15.6979 7.7275 15.2212 7.41583C15.2121 10.0925 15.2304 12.7692 15.2029 15.4367C15.1296 16.72 14.7079 17.9942 13.9654 19.0483C12.7646 20.8083 10.6837 21.9542 8.54791 21.9908C7.23708 22.0642 5.92624 21.7067 4.80791 21.0467C2.95624 19.9558 1.65458 17.9575 1.46208 15.8125C1.44374 15.3542 1.43458 14.8958 1.45291 14.4467C1.61791 12.705 2.47958 11.0367 3.81791 9.9C5.33958 8.58 7.46624 7.9475 9.45541 8.32333C9.47374 9.68 9.41874 11.0367 9.41874 12.3933C8.51124 12.1 7.44791 12.1825 6.65041 12.7325C6.07291 13.1083 5.63291 13.6858 5.40374 14.3367C5.21124 14.8042 5.26624 15.3175 5.27541 15.8125C5.49541 17.3158 6.94374 18.5808 8.48374 18.4433C9.51041 18.4342 10.4912 17.8383 11.0229 16.9675C11.1971 16.665 11.3896 16.3533 11.3987 15.9958C11.4904 14.355 11.4537 12.7233 11.4629 11.0825C11.4721 7.38833 11.4537 3.70333 11.4812 0.0183333Z" fill="white"/>
</g>
<defs>
<clipPath id="clip0_1620_191">
<rect width="22" height="22" fill="white"/>
</clipPath>
</defs>
</svg>
