<svg width="25" height="24" viewBox="0 0 25 24" fill="none" xmlns="http://www.w3.org/2000/svg">
<path d="M13.7156 1.98218C14.4385 1.9794 15.1613 1.98667 15.884 2.00397L16.0762 2.0109C16.298 2.01883 16.517 2.02873 16.7814 2.04062C17.8354 2.09015 18.5546 2.25657 19.1856 2.50124C19.8394 2.75285 20.3901 3.09361 20.9409 3.64437C21.4445 4.13927 21.8342 4.73792 22.083 5.39869C22.3277 6.0297 22.4941 6.74985 22.5437 7.80383C22.5556 8.06732 22.5655 8.28723 22.5734 8.50912L22.5793 8.7013C22.5969 9.42362 22.6045 10.1462 22.6021 10.8687L22.6031 11.6077V12.9053C22.6055 13.6282 22.5979 14.3511 22.5803 15.0737L22.5744 15.2659C22.5664 15.4878 22.5565 15.7067 22.5447 15.9712C22.4951 17.0252 22.3267 17.7443 22.083 18.3753C21.835 19.0368 21.4452 19.6359 20.9409 20.1306C20.4456 20.6342 19.8466 21.0239 19.1856 21.2728C18.5546 21.5175 17.8354 21.6839 16.7814 21.7334C16.517 21.7453 16.298 21.7552 16.0762 21.7631L15.884 21.7691C15.1613 21.7867 14.4385 21.7943 13.7156 21.7918L12.9766 21.7928H11.6799C10.9571 21.7953 10.2342 21.7877 9.51156 21.7701L9.31939 21.7641C9.08423 21.7556 8.84913 21.7457 8.61409 21.7344C7.56011 21.6849 6.84095 21.5165 6.20896 21.2728C5.54793 21.0245 4.94917 20.6347 4.45464 20.1306C3.95048 19.6356 3.56036 19.0366 3.31151 18.3753C3.06683 17.7443 2.90041 17.0252 2.85088 15.9712C2.83985 15.7361 2.82995 15.501 2.82117 15.2659L2.81621 15.0737C2.79795 14.3511 2.7897 13.6282 2.79145 12.9053V10.8687C2.78869 10.1462 2.79595 9.42363 2.81324 8.7013L2.82018 8.50912C2.8281 8.28723 2.83801 8.06732 2.84989 7.80383C2.89942 6.74886 3.06584 6.03069 3.31051 5.39869C3.55952 4.7376 3.9504 4.13911 4.45563 3.64536C4.94982 3.14091 5.5482 2.75044 6.20896 2.50124C6.84095 2.25657 7.55912 2.09015 8.61409 2.04062L9.31939 2.0109L9.51156 2.00595C10.2339 1.9877 10.9564 1.97944 11.679 1.98119L13.7156 1.98218ZM12.6973 6.93509C12.041 6.92581 11.3895 7.04705 10.7805 7.29176C10.1715 7.53648 9.6172 7.8998 9.14985 8.36059C8.68249 8.82139 8.31137 9.37047 8.05807 9.97594C7.80476 10.5814 7.67432 11.2312 7.67432 11.8875C7.67432 12.5438 7.80476 13.1936 8.05807 13.7991C8.31137 14.4045 8.68249 14.9536 9.14985 15.4144C9.6172 15.8752 10.1715 16.2385 10.7805 16.4832C11.3895 16.728 12.041 16.8492 12.6973 16.8399C14.0109 16.8399 15.2707 16.3181 16.1995 15.3892C17.1284 14.4604 17.6502 13.2006 17.6502 11.887C17.6502 10.5734 17.1284 9.31362 16.1995 8.38477C15.2707 7.45592 14.0109 6.93509 12.6973 6.93509ZM12.6973 8.91625C13.092 8.90898 13.4843 8.98044 13.8511 9.12646C14.2179 9.27248 14.552 9.49014 14.8337 9.76671C15.1155 10.0433 15.3393 10.3732 15.4921 10.7373C15.645 11.1013 15.7237 11.4922 15.7238 11.887C15.7238 12.2818 15.6452 12.6727 15.4925 13.0368C15.3398 13.4009 15.1161 13.7309 14.8344 14.0076C14.5528 14.2843 14.2188 14.502 13.852 14.6482C13.4852 14.7943 13.093 14.8659 12.6983 14.8588C11.9101 14.8588 11.1542 14.5457 10.5969 13.9884C10.0396 13.431 9.72652 12.6752 9.72652 11.887C9.72652 11.0989 10.0396 10.343 10.5969 9.78567C11.1542 9.22836 11.9101 8.91526 12.6983 8.91526L12.6973 8.91625ZM17.8978 5.44921C17.5783 5.462 17.276 5.59795 17.0545 5.82858C16.8329 6.05921 16.7091 6.36663 16.7091 6.68645C16.7091 7.00628 16.8329 7.3137 17.0545 7.54432C17.276 7.77495 17.5783 7.9109 17.8978 7.92369C18.2262 7.92369 18.5412 7.79323 18.7734 7.56102C19.0056 7.32881 19.1361 7.01386 19.1361 6.68546C19.1361 6.35706 19.0056 6.04211 18.7734 5.8099C18.5412 5.57769 18.2262 5.44723 17.8978 5.44723V5.44921Z" fill="white"/>
</svg>
