<svg width="110" height="35" viewBox="0 0 110 35" fill="none" xmlns="http://www.w3.org/2000/svg">
<path d="M102.901 1.30957H6.5476C3.65468 1.30957 1.30951 3.65475 1.30951 6.54767V27.5C1.30951 30.393 3.65468 32.7381 6.5476 32.7381H102.901C105.793 32.7381 108.139 30.393 108.139 27.5V6.54767C108.139 3.65475 105.793 1.30957 102.901 1.30957Z" fill="black" stroke="#979797"/>
<path d="M38.8342 9.35525C38.8614 9.93765 38.6469 10.5056 38.2407 10.9267C37.7868 11.3948 37.1538 11.6491 36.4998 11.626C35.8417 11.6324 35.2088 11.3751 34.7441 10.9122C34.2794 10.4494 34.0223 9.82012 34.0308 9.16668C34.0223 8.51324 34.2794 7.88396 34.7441 7.42113C35.2088 6.9583 35.8417 6.70099 36.4998 6.70739C36.8344 6.70629 37.1656 6.77313 37.4732 6.90382C37.7595 7.0185 38.0144 7.19891 38.217 7.43025L37.7976 7.84668C37.4774 7.4685 36.9967 7.26187 36.4998 7.28882C36.0018 7.28646 35.5241 7.4851 35.1765 7.83919C34.8289 8.19327 34.641 8.6724 34.656 9.16668C34.6454 9.91562 35.0896 10.5973 35.7821 10.8947C36.4744 11.192 37.279 11.0465 37.8213 10.526C38.0648 10.264 38.2052 9.92371 38.217 9.56739H36.4998V9.00168H38.8026C38.8237 9.11837 38.8343 9.2367 38.8342 9.35525Z" fill="white" stroke="white" stroke-width="0.2"/>
<path d="M42.4585 7.391H40.3219V8.88386H42.2685V9.44957H40.3219V10.9424H42.4585V11.5239H39.6889V6.80957H42.4585V7.391Z" fill="white" stroke="white" stroke-width="0.2"/>
<path d="M45.054 11.5239H44.4447V7.391H43.1153V6.80957H46.4152V7.391H45.054V11.5239Z" fill="white" stroke="white" stroke-width="0.2"/>
<path d="M48.7416 11.5239V6.80957H49.351V11.5239H48.7416Z" fill="white" stroke="white" stroke-width="0.2"/>
<path d="M52.0572 11.5239H51.4479V7.391H50.1185V6.80957H53.3788V7.391H52.0572V11.5239Z" fill="white" stroke="white" stroke-width="0.2"/>
<path fill-rule="evenodd" clip-rule="evenodd" d="M55.3808 9.16661C55.3664 9.81754 55.6176 10.4466 56.0772 10.9109C57.0403 11.8618 58.596 11.8618 59.5591 10.9109C60.0188 10.4466 60.2699 9.81754 60.2554 9.16661C60.2699 8.5157 60.0188 7.88662 59.5591 7.42232C59.0986 6.9617 58.4718 6.70264 57.8181 6.70264C57.1645 6.70264 56.5378 6.9617 56.0772 7.42232C55.6176 7.88662 55.3664 8.5157 55.3808 9.16661ZM59.108 10.518C58.3948 11.2233 57.2415 11.2233 56.5284 10.518C56.1734 10.1582 55.9818 9.67003 55.9981 9.16661C55.9734 8.66772 56.1532 8.18016 56.4967 7.81518C57.2098 7.10995 58.3631 7.10995 59.0764 7.81518C59.443 8.16971 59.6462 8.65857 59.6382 9.16661C59.6546 9.67003 59.463 10.1582 59.108 10.518Z" fill="white"/>
<path d="M56.0772 10.911L55.9841 11.0031L55.9853 11.0042L56.0772 10.911ZM55.3808 9.1667L55.5119 9.16962L55.5118 9.1638L55.3808 9.1667ZM59.5591 10.911L59.6511 11.0042L59.6521 11.0031L59.5591 10.911ZM60.2554 9.1667L60.1245 9.1638L60.1246 9.16962L60.2554 9.1667ZM56.5284 10.5181L56.4351 10.6101L56.4362 10.6113L56.5284 10.5181ZM59.108 10.5181L59.2001 10.6113L59.2012 10.6101L59.108 10.5181ZM55.9982 9.1667L56.1295 9.17096L56.129 9.16021L55.9982 9.1667ZM56.4967 7.81527L56.4045 7.72209L56.4014 7.72553L56.4967 7.81527ZM59.0764 7.81527L58.9843 7.9084L58.9853 7.9094L59.0764 7.81527ZM59.6382 9.1667L59.5072 9.16465L59.5074 9.17095L59.6382 9.1667ZM56.1704 10.8189C55.7355 10.3797 55.4983 9.78489 55.5119 9.16962L55.25 9.1638C55.2347 9.85035 55.4995 10.5137 55.9841 11.0031L56.1704 10.8189ZM59.4671 10.8178C58.555 11.7183 57.0813 11.7183 56.1693 10.8178L55.9853 11.0042C56.9993 12.0054 58.6371 12.0054 59.6511 11.0042L59.4671 10.8178ZM60.1246 9.16962C60.1382 9.78489 59.9008 10.3797 59.466 10.8189L59.6521 11.0031C60.1368 10.5137 60.4017 9.85035 60.3864 9.1638L60.1246 9.16962ZM59.466 7.51456C59.9008 7.9537 60.1381 8.54853 60.1245 9.1638L60.3864 9.16962C60.4017 8.48305 60.1368 7.8197 59.6521 7.33028L59.466 7.51456ZM57.8181 6.83368C58.4373 6.83368 59.0301 7.07859 59.466 7.51456L59.6521 7.33028C59.1669 6.84498 58.5065 6.57178 57.8181 6.57178V6.83368ZM56.1698 7.51501C56.6058 7.07905 57.1991 6.83368 57.8181 6.83368V6.57178C57.1298 6.57178 56.4698 6.84454 55.9847 7.32983L56.1698 7.51501ZM55.5118 9.1638C55.4982 8.54853 55.7349 7.95416 56.1698 7.51501L55.9847 7.32983C55.5 7.81926 55.2347 8.48305 55.25 9.16962L55.5118 9.1638ZM56.4362 10.6113C57.2006 11.3669 58.4358 11.3669 59.2001 10.6113L59.0159 10.425C58.3537 11.0798 57.2827 11.0798 56.6204 10.425L56.4362 10.6113ZM55.8672 9.16246C55.8498 9.70191 56.055 10.2248 56.4351 10.6101L56.6215 10.4262C56.2917 10.0918 56.1144 9.63837 56.1295 9.17096L55.8672 9.16246ZM56.4014 7.72553C56.0335 8.11635 55.8409 8.63861 55.8673 9.1732L56.129 9.16021C56.1059 8.69702 56.2729 8.24417 56.592 7.90502L56.4014 7.72553ZM59.1685 7.72215C58.4043 6.96648 57.1687 6.96642 56.4045 7.72209L56.5887 7.9084C57.251 7.25361 58.3222 7.25361 58.9843 7.9084L59.1685 7.72215ZM59.7692 9.16876C59.7777 8.62436 59.5599 8.10074 59.1675 7.72115L58.9853 7.9094C59.326 8.23888 59.5146 8.69296 59.5072 9.16465L59.7692 9.16876ZM59.2012 10.6101C59.5814 10.2248 59.7866 9.70191 59.7692 9.16246L59.5074 9.17095C59.5225 9.63835 59.3446 10.0918 59.0148 10.4262L59.2012 10.6101Z" fill="white"/>
<path d="M61.118 11.5239V6.80957H61.8618L64.1724 10.4789V9.56743V6.80957H64.7818V11.5239H64.1487L61.7273 7.68171V8.59314V11.5239H61.118Z" fill="white" stroke="white" stroke-width="0.2"/>
<path fill-rule="evenodd" clip-rule="evenodd" d="M39.188 19.4321V20.8464H42.6065C42.553 21.5126 42.2741 22.1411 41.8152 22.63C41.1236 23.3294 40.1665 23.7061 39.18 23.6671C37.0823 23.6671 35.3818 21.9786 35.3818 19.8957C35.3818 17.8128 37.0823 16.1243 39.18 16.1243C40.1437 16.1087 41.0743 16.4731 41.7677 17.1378L42.7727 16.14C41.827 15.1891 40.5338 14.6592 39.188 14.6707C37.2722 14.5967 35.4691 15.5693 34.4889 17.2054C33.5089 18.8417 33.5089 20.879 34.4889 22.5153C35.4691 24.1514 37.2722 25.124 39.188 25.05C40.5585 25.1115 41.8885 24.5814 42.836 23.5964C43.665 22.692 44.1077 21.5031 44.0705 20.2807C44.0731 19.9829 44.0465 19.6855 43.9914 19.3928L39.188 19.4321ZM47.9638 18.4028C46.1074 18.4072 44.6057 19.9042 44.6086 21.7474C44.6116 23.5905 46.118 25.0828 47.9744 25.0814C49.8308 25.08 51.3349 23.5854 51.3349 21.7421C51.3479 20.8498 50.9956 19.9905 50.3585 19.361C49.7216 18.7315 48.8545 18.3857 47.956 18.4028H47.9638ZM51.9838 21.7526C51.9779 19.9104 53.4757 18.4115 55.3311 18.4028C56.2297 18.3857 57.0967 18.7315 57.7338 19.361C58.3707 19.9905 58.7231 20.8498 58.71 21.7421C58.71 23.5844 57.2075 25.0785 55.3521 25.0814C53.4968 25.0843 51.9896 23.5947 51.9838 21.7526ZM53.3465 22.6209C53.7078 23.3719 54.4948 23.8274 55.3311 23.7693C55.8559 23.7572 56.3537 23.5351 56.7113 23.1534C57.0688 22.7717 57.2561 22.2628 57.2303 21.7421C57.2282 20.9098 56.7139 20.1632 55.9334 19.8597C55.1528 19.556 54.2647 19.7569 53.6938 20.3663C53.1228 20.9758 52.9851 21.8698 53.3465 22.6209ZM45.9739 22.627C46.3378 23.3774 47.1272 23.8305 47.9638 23.7693H47.956C48.4808 23.7572 48.9784 23.5351 49.3361 23.1534C49.6937 22.7717 49.8808 22.2628 49.855 21.7421C49.8528 20.9091 49.3375 20.1623 48.556 19.8593C47.7745 19.5564 46.8858 19.759 46.3158 20.37C45.7456 20.9812 45.6099 21.8763 45.9739 22.627ZM72.1626 18.4028C73.4745 18.4508 74.6205 19.2979 75.0431 20.5321L75.2092 20.8857L70.7066 22.7321C70.9888 23.3702 71.6353 23.7723 72.3367 23.7457C73.014 23.7474 73.6421 23.3953 73.9906 22.8185L75.138 23.6043C74.5134 24.5326 73.461 25.0874 72.3367 25.0814C71.4429 25.0944 70.5823 24.746 69.9524 24.1163C69.3227 23.4864 68.9779 22.6295 68.9973 21.7421C68.9426 20.8751 69.2518 20.0243 69.8515 19.3917C70.4511 18.7592 71.2876 18.4011 72.1626 18.4028ZM70.4533 21.6478C70.421 21.1569 70.5888 20.6737 70.9194 20.3071C71.2499 19.9405 71.715 19.7214 72.21 19.6993C72.7319 19.6651 73.2237 19.9434 73.4604 20.4064L70.4533 21.6478ZM68.2771 24.885H66.7974V15.0635H68.2771V24.885ZM64.3759 19.1493H64.3206C63.8694 18.6485 63.2246 18.3626 62.548 18.3635C60.7517 18.45 59.3402 19.9212 59.3402 21.7068C59.3402 23.4923 60.7517 24.9635 62.548 25.05C63.2268 25.0614 63.8758 24.7737 64.3206 24.2643H64.368V24.7435C64.368 26.0243 63.6795 26.7078 62.5717 26.7078C61.817 26.6903 61.1478 26.2215 60.8782 25.5214L59.5885 26.0557C60.0852 27.2553 61.2654 28.0356 62.5717 28.0278C64.3047 28.0278 65.7371 27.0143 65.7371 24.5471V18.5993H64.3759V19.1493ZM62.68 23.769L62.6825 23.7693H62.6746L62.68 23.769ZM64.0135 23.139C63.6739 23.5206 63.1923 23.748 62.68 23.769C61.6232 23.6754 60.8129 22.796 60.8129 21.7421C60.8129 20.6874 61.6244 19.8076 62.6825 19.715C63.1938 19.741 63.6729 19.971 64.011 20.3526C64.3492 20.7342 64.5179 21.2353 64.4787 21.7421C64.5225 22.2513 64.3543 22.7561 64.0135 23.139ZM81.975 15.0635H78.4299V24.885H79.9096V21.1607H81.975C83.1245 21.2427 84.224 20.6802 84.8239 19.7032C85.4239 18.7262 85.4239 17.4981 84.8239 16.521C84.224 15.544 83.1245 14.9816 81.975 15.0635ZM79.9096 19.7778H81.975L82.0067 19.8014C82.9441 19.8014 83.7041 19.0469 83.7041 18.116C83.7041 17.1852 82.9441 16.4307 82.0067 16.4307H79.9096V19.7778ZM91.099 18.3635C89.9981 18.2982 88.963 18.8877 88.4638 19.8643L89.7776 20.4064C90.0421 19.9221 90.5697 19.6386 91.1227 19.6835C91.5022 19.6395 91.8835 19.7488 92.1812 19.9866C92.4787 20.2245 92.6677 20.5711 92.7054 20.9485V21.0507C92.2302 20.8008 91.7001 20.6713 91.1624 20.6735C89.7459 20.6735 88.3135 21.4593 88.3135 22.8814C88.3418 23.494 88.6184 24.0693 89.0805 24.4763C89.5425 24.8833 90.1506 25.0873 90.7666 25.0421C91.5258 25.0962 92.254 24.7346 92.6658 24.0993H92.7134V24.885H94.1378V21.1057C94.1378 19.385 92.8242 18.3871 91.1386 18.3871L91.099 18.3635ZM89.7617 22.9128C89.7617 23.5021 90.4343 23.7457 90.917 23.7457L90.9565 23.7693C91.8481 23.7477 92.5873 23.0774 92.6895 22.1978C92.279 21.9702 91.8144 21.8563 91.3443 21.8678C90.6005 21.8678 89.7617 22.1271 89.7617 22.9128ZM99.3288 18.5993L97.6354 22.8578H97.588L95.8311 18.5993H94.2485L96.8836 24.555L95.3801 27.8628H96.9232L100.975 18.5993H99.3288ZM87.5065 24.885H86.0266V15.0635H87.5065V24.885Z" fill="white"/>
<path d="M9.57099 7.23371C9.31875 7.54334 9.19431 7.93649 9.22282 8.33371V25.7137C9.19872 26.113 9.3289 26.5064 9.58682 26.8137L9.64222 26.8687L19.431 17.1416V16.9137L9.62639 7.17871L9.57099 7.23371Z" fill="url(#paint0_linear_1620_189)"/>
<path d="M22.6753 20.3866L19.431 17.1416V16.9137L22.6753 13.6609L22.7466 13.7002L26.632 15.8923C27.7399 16.513 27.7399 17.5345 26.632 18.163L22.7624 20.3473L22.6753 20.3866Z" fill="url(#paint1_linear_1620_189)"/>
<path d="M22.7703 20.3475L19.4308 17.0239L9.57098 26.8139C10.0368 27.2205 10.7282 27.2403 11.2169 26.8611L22.7783 20.3396" fill="url(#paint2_linear_1620_189)"/>
<path d="M22.7703 13.7082L11.209 7.18672C10.7203 6.80743 10.0289 6.82723 9.56305 7.23387L19.4308 17.0239L22.7703 13.7082Z" fill="url(#paint3_linear_1620_189)"/>
<path opacity="0.2" d="M22.6753 20.2688L11.209 26.7509C10.7398 27.0993 10.0956 27.0993 9.62638 26.7509L9.57098 26.8059L9.62638 26.8609C10.0947 27.2119 10.7407 27.2119 11.209 26.8609L22.7703 20.3395L22.6753 20.2688Z" fill="black"/>
<path opacity="0.12" d="M9.57096 26.7038C9.31303 26.3964 9.18285 26.003 9.20693 25.6038V25.7216C9.18285 26.1209 9.31303 26.5143 9.57096 26.8216L9.62635 26.7666L9.57096 26.7038Z" fill="black"/>
<path opacity="0.12" d="M26.6319 18.0454L22.6753 20.2689L22.7465 20.3396L26.6319 18.1554C27.0807 17.9461 27.3825 17.5145 27.4232 17.0239C27.3331 17.4677 27.0409 17.845 26.6319 18.0454Z" fill="black"/>
<path opacity="0.25" d="M11.209 7.29659L26.6319 16.0023C27.0409 16.2027 27.333 16.5799 27.4233 17.0237C27.3825 16.5332 27.0807 16.1016 26.6319 15.8923L11.209 7.18659C10.1091 6.55802 9.22278 7.07659 9.22278 8.33373V8.45159C9.22278 7.19445 10.1091 6.67588 11.209 7.29659Z" fill="white"/>
<defs>
<linearGradient id="paint0_linear_1620_189" x1="15.1415" y1="-4.64811" x2="-0.539689" y2="-0.459902" gradientUnits="userSpaceOnUse">
<stop stop-color="#00A0FF"/>
<stop offset="0.01" stop-color="#00A1FF"/>
<stop offset="0.26" stop-color="#00BEFF"/>
<stop offset="0.51" stop-color="#00D2FF"/>
<stop offset="0.76" stop-color="#00DFFF"/>
<stop offset="1" stop-color="#00E3FF"/>
</linearGradient>
<linearGradient id="paint1_linear_1620_189" x1="28.0801" y1="9.00922" x2="8.93791" y2="9.00922" gradientUnits="userSpaceOnUse">
<stop stop-color="#FFE000"/>
<stop offset="0.41" stop-color="#FFBD00"/>
<stop offset="0.78" stop-color="#FFA500"/>
<stop offset="1" stop-color="#FF9C00"/>
</linearGradient>
<linearGradient id="paint2_linear_1620_189" x1="9.28126" y1="11.9384" x2="-3.19748" y2="33.0788" gradientUnits="userSpaceOnUse">
<stop stop-color="#FF3A44"/>
<stop offset="1" stop-color="#C31162"/>
</linearGradient>
<linearGradient id="paint3_linear_1620_189" x1="1.87138" y1="4.52787" x2="7.44129" y2="13.9681" gradientUnits="userSpaceOnUse">
<stop stop-color="#32A071"/>
<stop offset="0.07" stop-color="#2DA771"/>
<stop offset="0.48" stop-color="#15CF74"/>
<stop offset="0.8" stop-color="#06E775"/>
<stop offset="1" stop-color="#00F076"/>
</linearGradient>
</defs>
</svg>
