<svg width="25" height="24" viewBox="0 0 25 24" fill="none" xmlns="http://www.w3.org/2000/svg">
<path d="M12.4722 1.9812C17.9432 1.9812 22.3781 6.41604 22.3781 11.887C22.3781 17.358 17.9432 21.7928 12.4722 21.7928C10.7217 21.7957 9.00189 21.3324 7.48961 20.4506L2.57037 21.7928L3.90964 16.8716C3.02713 15.3589 2.56349 13.6384 2.56641 11.887C2.56641 6.41604 7.00125 1.9812 12.4722 1.9812ZM9.09633 7.23129L8.89821 7.23921C8.76996 7.24702 8.64461 7.28072 8.52972 7.33827C8.42226 7.39912 8.32417 7.47519 8.23849 7.56412C8.11962 7.67606 8.05226 7.77314 7.97995 7.86724C7.61355 8.34362 7.41628 8.92847 7.41928 9.52944C7.42126 10.0148 7.54805 10.4873 7.74617 10.9291C8.15132 11.8226 8.81798 12.7686 9.69762 13.6453C9.9096 13.8563 10.1176 14.0683 10.3415 14.2654C11.4345 15.2277 12.737 15.9217 14.1453 16.2921L14.708 16.3783C14.8912 16.3882 15.0745 16.3744 15.2587 16.3654C15.5472 16.3506 15.8289 16.2724 16.0839 16.1366C16.2136 16.0698 16.3402 15.9971 16.4633 15.9187C16.4633 15.9187 16.5059 15.891 16.5871 15.8295C16.7208 15.7305 16.8031 15.6602 16.914 15.5443C16.9962 15.4591 17.0675 15.359 17.122 15.2451C17.1993 15.0836 17.2766 14.7756 17.3083 14.519C17.332 14.3229 17.3251 14.2159 17.3221 14.1495C17.3182 14.0435 17.23 13.9336 17.1339 13.887L16.5574 13.6285C16.5574 13.6285 15.6956 13.253 15.1686 13.0133C15.1135 12.9892 15.0544 12.9755 14.9943 12.9727C14.9265 12.9657 14.858 12.9734 14.7934 12.9951C14.7288 13.0168 14.6696 13.052 14.6198 13.0985C14.6149 13.0965 14.5485 13.153 13.8323 14.0207C13.7912 14.076 13.7346 14.1177 13.6697 14.1407C13.6047 14.1636 13.5345 14.1667 13.4678 14.1495C13.4032 14.1322 13.34 14.1104 13.2786 14.0841C13.1557 14.0326 13.1131 14.0128 13.0289 13.9772C12.4604 13.7291 11.934 13.3938 11.4688 12.9836C11.344 12.8746 11.2281 12.7558 11.1092 12.6409C10.7195 12.2676 10.3799 11.8454 10.0988 11.3848L10.0404 11.2907C9.99838 11.2275 9.96444 11.1592 9.93932 11.0876C9.90168 10.942 9.99974 10.8251 9.99974 10.8251C9.99974 10.8251 10.2405 10.5616 10.3524 10.419C10.4614 10.2803 10.5535 10.1456 10.6129 10.0495C10.7298 9.86128 10.7665 9.66812 10.705 9.51854C10.4277 8.84098 10.1404 8.1664 9.84521 7.49676C9.78677 7.36403 9.61342 7.26893 9.45591 7.25011C9.40242 7.24417 9.34893 7.23822 9.29544 7.23426C9.16241 7.22765 9.02911 7.22897 8.89623 7.23822L9.09534 7.2303L9.09633 7.23129Z" fill="white"/>
</svg>
