<svg width="14" height="14" viewBox="0 0 14 14" fill="none" xmlns="http://www.w3.org/2000/svg">
<path d="M9.33342 1.16666H4.66675C2.7365 1.16666 1.16675 2.73641 1.16675 4.66666V11.6667C1.16675 11.8214 1.22821 11.9697 1.3376 12.0791C1.447 12.1885 1.59537 12.25 1.75008 12.25H9.33342C11.2637 12.25 12.8334 10.6802 12.8334 8.74999V4.66666C12.8334 2.73641 11.2637 1.16666 9.33342 1.16666ZM11.6667 8.74999C11.6667 10.0368 10.6202 11.0833 9.33342 11.0833H2.33341V4.66666C2.33341 3.37982 3.37991 2.33332 4.66675 2.33332H9.33342C10.6202 2.33332 11.6667 3.37982 11.6667 4.66666V8.74999Z" fill="#464646"/>
<path d="M5.54175 7.58334C6.025 7.58334 6.41675 7.19159 6.41675 6.70834C6.41675 6.22509 6.025 5.83334 5.54175 5.83334C5.0585 5.83334 4.66675 6.22509 4.66675 6.70834C4.66675 7.19159 5.0585 7.58334 5.54175 7.58334Z" fill="#464646"/>
<path d="M8.45825 7.58334C8.9415 7.58334 9.33325 7.19159 9.33325 6.70834C9.33325 6.22509 8.9415 5.83334 8.45825 5.83334C7.975 5.83334 7.58325 6.22509 7.58325 6.70834C7.58325 7.19159 7.975 7.58334 8.45825 7.58334Z" fill="#464646"/>
</svg>
