<svg width="10" height="11" viewBox="0 0 10 11" fill="none" xmlns="http://www.w3.org/2000/svg">
<g clip-path="url(#clip0_1567_1808)">
<path d="M8.76245 6.74154H3.67312L3.78675 7.32487H8.44679C8.71417 7.32487 8.91234 7.58557 8.85309 7.85933L8.75731 8.30186C9.08181 8.46726 9.30556 8.81653 9.30556 9.2207C9.30556 9.78949 8.86252 10.2496 8.31903 10.2414C7.80127 10.2336 7.37545 9.79243 7.36147 9.2489C7.35384 8.95201 7.46712 8.68291 7.65319 8.49152H4.01347C4.19363 8.67684 4.30556 8.93498 4.30556 9.2207C4.30556 9.80063 3.845 10.2676 3.28698 10.2404C2.79149 10.2163 2.38852 9.79589 2.36248 9.27577C2.34238 8.87411 2.54366 8.52008 2.84948 8.3354L1.62991 2.07487H0.416667C0.186545 2.07487 0 1.879 0 1.63737V1.3457C0 1.10408 0.186545 0.908203 0.416667 0.908203H2.19668C2.39462 0.908203 2.56523 1.05442 2.6049 1.25802L2.76403 2.07487H9.58316C9.85054 2.07487 10.0487 2.33557 9.98946 2.60933L9.16875 6.401C9.12564 6.60019 8.957 6.74154 8.76245 6.74154ZM7.08333 3.9707H6.25V3.24154C6.25 3.08045 6.12564 2.94987 5.97222 2.94987H5.69444C5.54102 2.94987 5.41667 3.08045 5.41667 3.24154V3.9707H4.58333C4.42991 3.9707 4.30556 4.10128 4.30556 4.26237V4.55404C4.30556 4.71513 4.42991 4.8457 4.58333 4.8457H5.41667V5.57487C5.41667 5.73596 5.54102 5.86654 5.69444 5.86654H5.97222C6.12564 5.86654 6.25 5.73596 6.25 5.57487V4.8457H7.08333C7.23675 4.8457 7.36111 4.71513 7.36111 4.55404V4.26237C7.36111 4.10128 7.23675 3.9707 7.08333 3.9707Z" fill="#019405"/>
</g>
<defs>
<clipPath id="clip0_1567_1808">
<rect width="10" height="9.33333" fill="white" transform="translate(0 0.908203)"/>
</clipPath>
</defs>
</svg>
