<svg width="14" height="15" viewBox="0 0 14 15" fill="none" xmlns="http://www.w3.org/2000/svg">
<g clip-path="url(#clip0_1553_2129)">
<path d="M11.6666 8.08332V3.85357C11.6667 3.80753 11.6576 3.76193 11.64 3.71939C11.6224 3.67684 11.5966 3.6382 11.564 3.60566L9.72765 1.76932C9.66207 1.70367 9.57311 1.66674 9.48031 1.66666H2.68331C2.59049 1.66666 2.50146 1.70353 2.43583 1.76917C2.37019 1.83481 2.33331 1.92383 2.33331 2.01666V12.9833C2.33331 13.0761 2.37019 13.1652 2.43583 13.2308C2.50146 13.2964 2.59049 13.3333 2.68331 13.3333H8.16665" stroke="white" stroke-width="1.5" stroke-linecap="round" stroke-linejoin="round"/>
<path d="M9.33331 1.66666V3.64999C9.33331 3.74282 9.37019 3.83184 9.43583 3.89748C9.50146 3.96311 9.59049 3.99999 9.68331 3.99999H11.6666M9.33331 11.5833H12.8333M12.8333 11.5833L11.0833 9.83332M12.8333 11.5833L11.0833 13.3333" stroke="white" stroke-width="1.5" stroke-linecap="round" stroke-linejoin="round"/>
</g>
<defs>
<clipPath id="clip0_1553_2129">
<rect width="14" height="14" fill="white" transform="translate(0 0.5)"/>
</clipPath>
</defs>
</svg>
