<svg width="20" height="20" viewBox="0 0 20 20" fill="none" xmlns="http://www.w3.org/2000/svg">
<path d="M15 16.6667C15 15.3406 14.4732 14.0688 13.5355 13.1311C12.5979 12.1934 11.3261 11.6667 10 11.6667C8.67392 11.6667 7.40215 12.1934 6.46447 13.1311C5.52678 14.0688 5 15.3406 5 16.6667" stroke="#2D2D2D" stroke-linecap="round" stroke-linejoin="round"/>
<path d="M10 11.6667C11.841 11.6667 13.3334 10.1743 13.3334 8.33333C13.3334 6.49238 11.841 5 10 5C8.15907 5 6.66669 6.49238 6.66669 8.33333C6.66669 10.1743 8.15907 11.6667 10 11.6667Z" stroke="#2D2D2D" stroke-linecap="round" stroke-linejoin="round"/>
<path d="M10 18.3333C14.6024 18.3333 18.3334 14.6024 18.3334 9.99999C18.3334 5.39762 14.6024 1.66666 10 1.66666C5.39765 1.66666 1.66669 5.39762 1.66669 9.99999C1.66669 14.6024 5.39765 18.3333 10 18.3333Z" stroke="#2D2D2D" stroke-linecap="round" stroke-linejoin="round"/>
</svg>
