<svg width="33" height="23" viewBox="0 0 33 23" fill="none" xmlns="http://www.w3.org/2000/svg">
<rect width="32.4706" height="23" rx="3" fill="white"/>
<g clip-path="url(#clip0_1553_2177)">
<path d="M16.5169 4.00101C18.0325 4.00101 19.5481 4.00117 21.0636 4.00148C22.6914 4.00345 23.9916 5.29295 23.9951 6.92557C24.0015 9.97518 24.0015 13.0248 23.9951 16.0745C23.9916 17.7072 22.6909 18.9972 21.063 18.9983C17.9974 19.0003 14.9317 19.0008 11.866 18.9996C10.4683 18.9996 9.19319 17.8616 9.03726 16.4749C9.01392 16.2696 9.00201 16.0631 9.00159 15.8564C8.99937 12.9033 8.99898 9.95027 9.00043 6.9973C9.00104 5.49959 9.98483 4.3126 11.4557 4.0349C11.59 4.0095 11.7293 4.00182 11.8663 4.00135C12.6447 3.99863 13.4232 4.00074 14.2016 4.00094C14.9736 4.00117 15.7453 4.00119 16.5169 4.00101ZM16.4788 17.1464C19.6167 17.1546 22.1431 14.6427 22.1547 11.503C22.1663 8.38061 19.6525 5.84264 16.5672 5.80487C13.5777 5.76825 10.8318 8.12649 10.8287 11.4766C10.8257 14.8321 13.5774 17.1812 16.4788 17.1464Z" fill="#CC1F3D"/>
<path d="M15.481 14.1783C15.45 14.5231 15.2317 14.5451 14.9748 14.5231C14.8038 14.5083 14.6306 14.5157 14.4585 14.5176C14.3296 14.519 14.2754 14.4681 14.279 14.332C14.3183 12.7679 14.355 11.2038 14.3891 9.63957C14.401 9.08816 14.4071 8.53664 14.4074 7.98501C14.4074 7.81614 14.4553 7.73252 14.638 7.72274C14.9121 7.70806 15.1861 7.67695 15.4582 7.63918C15.6301 7.61527 15.6949 7.6669 15.6929 7.84589C15.6858 8.47852 15.6901 9.11121 15.6901 9.7547C15.8594 9.68976 16.0452 9.62768 16.2208 9.54412C16.262 9.52449 16.2854 9.43279 16.2882 9.37287C16.3001 9.11841 16.3086 8.86341 16.3035 8.6086C16.3006 8.46826 16.3398 8.40964 16.4883 8.41432C16.7773 8.42343 17.0669 8.42316 17.3559 8.41555C17.502 8.41174 17.5511 8.46942 17.5477 8.61064C17.5409 8.88541 17.5457 9.16053 17.5457 9.45459C18.0228 9.56423 18.3948 9.8295 18.5714 10.3037C18.6568 10.5332 18.7321 10.7836 18.732 11.0246C18.7316 11.7743 18.7299 12.5276 18.6574 13.2726C18.5991 13.872 18.2635 14.3187 17.666 14.5305C17.6117 14.5497 17.582 14.6443 17.5476 14.7076C17.536 14.7288 17.5457 14.7619 17.5458 14.7891C17.5482 15.303 17.5482 15.303 17.0242 15.3031C16.8383 15.3031 16.6524 15.3015 16.4664 15.3037C16.3539 15.3051 16.3071 15.258 16.3098 15.1415C16.3141 14.9558 16.3672 14.7319 16.2837 14.5951C16.2081 14.4711 15.9756 14.446 15.8161 14.3693C15.7114 14.3193 15.6137 14.2548 15.481 14.1783ZM15.6102 13.2104C15.6075 13.3429 15.6509 13.4278 15.7772 13.4518C16.0773 13.5086 16.3787 13.5964 16.6801 13.5988C17.0708 13.6018 17.3124 13.374 17.3973 12.9834C17.4405 12.7841 17.4524 12.575 17.453 12.3703C17.4542 11.9304 17.4641 11.4882 17.4233 11.0514C17.3849 10.6412 17.1235 10.4157 16.7116 10.4311C16.4077 10.4425 16.1064 10.5277 15.8037 10.5781C15.6788 10.599 15.6431 10.668 15.6456 10.7933C15.6456 10.5397 15.61 11.5813 15.61 11.9812" fill="black"/>
</g>
<defs>
<clipPath id="clip0_1553_2177">
<rect width="15" height="15" fill="white" transform="translate(9 4)"/>
</clipPath>
</defs>
</svg>
