<svg width="33" height="23" viewBox="0 0 33 23" fill="none" xmlns="http://www.w3.org/2000/svg">
<rect width="32.4706" height="23" rx="3" fill="white"/>
<path d="M24.1 6H7.9C7.40303 6 7 6.40303 7 6.9V15.9C7 16.397 7.40303 16.8 7.9 16.8H24.1C24.597 16.8 25 16.397 25 15.9V6.9C25 6.40303 24.597 6 24.1 6ZM8.35 15.45V13.65C9.34422 13.65 10.15 14.4558 10.15 15.45H8.35ZM8.35 9.15V7.35H10.15C10.15 8.34422 9.34422 9.15 8.35 9.15ZM16 14.1C14.7572 14.1 13.75 12.8909 13.75 11.4C13.75 9.90881 14.7574 8.7 16 8.7C17.2426 8.7 18.25 9.90881 18.25 11.4C18.25 12.8915 17.2423 14.1 16 14.1ZM23.65 15.45H21.85C21.85 14.4558 22.6558 13.65 23.65 13.65V15.45ZM23.65 9.15C22.6558 9.15 21.85 8.34422 21.85 7.35H23.65V9.15Z" fill="#16907F"/>
</svg>
