<svg width="33" height="23" viewBox="0 0 33 23" fill="none" xmlns="http://www.w3.org/2000/svg">
<rect width="32.4706" height="23" rx="3" fill="white"/>
<path d="M20.6478 12.9084V8.68249H21.3644V9.02134C21.5825 8.7487 21.9058 8.60068 22.307 8.60068C23.1327 8.60068 23.7247 9.25891 23.7247 10.2015C23.7247 11.144 23.1288 11.814 22.307 11.814C21.9019 11.814 21.5825 11.6581 21.3644 11.3855V12.9084L20.6478 12.9084ZM21.3645 9.81205V10.591C21.5164 10.9065 21.789 11.1363 22.1824 11.1363C22.6576 11.1363 22.977 10.7819 22.977 10.1976C22.977 9.62122 22.6576 9.27064 22.1824 9.27064C21.789 9.27451 21.5164 9.48874 21.3645 9.81205Z" fill="#02AA7C"/>
<path d="M24.1882 10.8558C24.1882 10.3417 24.5076 9.98335 25.0372 9.91714L26.2563 9.76132V9.60943C26.2563 9.4264 26.1629 9.32899 25.9915 9.32899H24.4608V8.67856H26.0188C26.6381 8.67856 26.9769 8.98234 26.9769 9.51988V11.7205H26.2525V11.3505C26.0422 11.6465 25.6955 11.814 25.2476 11.814C24.6166 11.814 24.1882 11.4284 24.1882 10.8558ZM25.4228 11.2297C25.7889 11.2297 26.1278 11.0232 26.2524 10.7195V10.3377L25.3215 10.4663C25.0645 10.5014 24.9204 10.6377 24.9204 10.8597C24.9204 11.0973 25.1034 11.2297 25.4228 11.2297Z" fill="#02AA7C"/>
<path d="M27.4989 12.258H28.0208C28.2195 12.258 28.3091 12.1762 28.3753 11.9892L28.4688 11.7205L27.3626 8.67856H28.1105L28.7998 10.7974H28.8154L29.4737 8.67856H30.2098L28.9985 12.1723C28.8349 12.6513 28.6167 12.9084 28.0832 12.9084H27.499L27.4989 12.258Z" fill="#02AA7C"/>
<path d="M5.62906 15C6.46258 15 7.14808 14.739 7.59988 14.3028C7.93873 13.9678 8.13736 13.516 8.13736 12.9942C8.13736 12.5229 7.96207 12.0984 7.63882 11.7751C7.31557 11.4517 6.85204 11.2142 6.26782 11.1012L5.30968 10.9143C4.91242 10.8402 4.68651 10.6416 4.68651 10.3651C4.68651 10.0029 5.03704 9.75362 5.59792 9.75362C5.94844 9.75362 6.24835 9.86657 6.44698 10.0652C6.5716 10.2015 6.65728 10.3768 6.68455 10.5754L8.06722 10.2638C8.02828 9.86657 7.84132 9.51599 7.55701 9.22781C7.10134 8.77987 6.40411 8.49556 5.58232 8.49556C4.8228 8.49556 4.18797 8.74486 3.74784 9.14212C3.37392 9.49265 3.16362 9.96392 3.16362 10.4897C3.16362 10.9493 3.31164 11.3388 3.61155 11.6348C3.91146 11.9347 4.34766 12.1568 4.92022 12.2969L5.86669 12.5228C6.34189 12.6358 6.55219 12.8111 6.55219 13.1227C6.55219 13.5082 6.20167 13.7341 5.62912 13.7341C5.21626 13.7341 4.88128 13.5978 4.67097 13.3719C4.52295 13.2239 4.4334 13.0214 4.42167 12.7993L3 13.111C3.03894 13.5355 3.23757 13.9094 3.53748 14.2093C4.00875 14.704 4.7722 15 5.62906 15ZM16.153 15C17.0761 15 17.785 14.665 18.2718 14.1899C18.6574 13.816 18.895 13.3798 19.0197 12.9318L17.563 12.445C17.5006 12.6709 17.376 12.9084 17.1774 13.0915C16.9398 13.3174 16.6165 13.4771 16.153 13.4771C15.7285 13.4771 15.3312 13.3135 15.043 13.0292C14.7548 12.7293 14.5795 12.2931 14.5795 11.7439C14.5795 11.183 14.7548 10.7584 15.043 10.4585C15.3273 10.1703 15.7168 10.0223 16.1414 10.0223C16.5893 10.0223 16.9009 10.1703 17.1268 10.3962C17.3137 10.5832 17.4267 10.8208 17.5007 11.0583L18.9846 10.5598C18.8717 10.1236 18.6341 9.68735 18.2875 9.32516C17.7889 8.83828 17.0645 8.49163 16.1063 8.49163C15.2222 8.49163 14.4238 8.82661 13.8512 9.40304C13.2787 9.98726 12.9281 10.8013 12.9281 11.7478C12.9281 12.6943 13.2904 13.5044 13.8746 14.0925C14.4432 14.665 15.2533 15 16.153 15ZM11.1169 15C11.7635 15 12.227 14.8014 12.4256 14.6261V13.2785C12.2737 13.3914 11.9777 13.5278 11.5882 13.5278C11.3117 13.5278 11.113 13.4654 10.9651 13.3291C10.8404 13.2045 10.7781 12.9903 10.7781 12.706V7H9.13058V8.68258H12.4217V10.2795H9.13058V13.111C9.13058 13.6836 9.30587 14.1471 9.61745 14.4704C9.96797 14.813 10.4821 15 11.1169 15Z" fill="#502C84"/>
</svg>
